<svg width="18" height="15" viewBox="0 0 18 15" fill="none" xmlns="http://www.w3.org/2000/svg">
<path d="M3 0C2.20435 0 1.44129 0.316073 0.87868 0.878687C0.31607 1.4413 0 2.20437 0 3.00003V3.30153L9 8.14807L18 3.30303V3.00003C18 2.20437 17.6839 1.4413 17.1213 0.878687C16.5587 0.316073 15.7956 0 15 0H3Z" fill="#121A37"/>
<path d="M18 5.00537L9.3555 9.65991C9.24624 9.71873 9.12409 9.74952 9 9.74952C8.87591 9.74952 8.75376 9.71873 8.6445 9.65991L0 5.00537V11.9999C0 12.7956 0.31607 13.5587 0.87868 14.1213C1.44129 14.6839 2.20435 15 3 15H15C15.7956 15 16.5587 14.6839 17.1213 14.1213C17.6839 13.5587 18 12.7956 18 11.9999V5.00537Z" fill="#121A37"/>
</svg>
