<svg width="25" height="25" viewBox="0 0 25 25" fill="none" xmlns="http://www.w3.org/2000/svg">
<g clip-path="url(#clip0)">
<path d="M23.6202 25.0001C24.3821 25.0001 25 24.3823 25 23.6203V1.37979C25 0.617676 24.3821 0 23.6202 0H1.37979C0.617578 0 0 0.617676 0 1.37979V23.6203C0 24.3823 0.617578 25.0001 1.37979 25.0001H23.6202Z" fill="#395185"/>
<path d="M17.2497 24.9999V15.3185H20.4994L20.9859 11.5456H17.2497V9.13657C17.2497 8.04419 17.5531 7.29976 19.1196 7.29976L21.1175 7.29888V3.92437C20.7718 3.87837 19.5859 3.77563 18.2062 3.77563C15.3255 3.77563 13.3535 5.53394 13.3535 8.76304V11.5456H10.0955V15.3185H13.3535V24.9999H17.2497Z" fill="white"/>
</g>
<defs>
<clipPath id="clip0">
<rect width="25" height="25" fill="white"/>
</clipPath>
</defs>
</svg>
