<svg width="18" height="22" viewBox="0 0 18 22" fill="none" xmlns="http://www.w3.org/2000/svg">
<path d="M9 0C13.9708 0 18 4.05352 18 9.05424C18 12.8802 15.3277 17.0498 10.0523 21.6076C9.75898 21.8611 9.38498 22.0003 8.99827 22C8.61157 21.9997 8.23781 21.8598 7.94492 21.6057L7.596 21.3012C2.55415 16.8623 0 12.7948 0 9.05424C0 4.05352 4.02923 0 9 0ZM9 5.57184C8.08194 5.57184 7.20149 5.93874 6.55232 6.59181C5.90316 7.24489 5.53846 8.13065 5.53846 9.05424C5.53846 9.97783 5.90316 10.8636 6.55232 11.5167C7.20149 12.1698 8.08194 12.5366 9 12.5366C9.91806 12.5366 10.7985 12.1698 11.4477 11.5167C12.0968 10.8636 12.4615 9.97783 12.4615 9.05424C12.4615 8.13065 12.0968 7.24489 11.4477 6.59181C10.7985 5.93874 9.91806 5.57184 9 5.57184Z" fill="white"/>
</svg>
