<svg width="25" height="25" viewBox="0 0 25 25" fill="none" xmlns="http://www.w3.org/2000/svg">
<path d="M12.5 0C5.59639 0 0 5.59639 0 12.5C0 19.4036 5.59639 25 12.5 25C19.4036 25 25 19.4036 25 12.5C25 5.59639 19.4036 0 12.5 0Z" fill="#40B3E0"/>
<path d="M18.5824 7.19043L16.3496 18.4472C16.3496 18.4472 16.0374 19.2278 15.1787 18.8531L10.0266 14.9031L8.15315 13.9977L4.99944 12.9359C4.99944 12.9359 4.51546 12.7643 4.46858 12.3896C4.42171 12.0148 5.01506 11.8119 5.01506 11.8119L17.5518 6.89395C17.5518 6.89395 18.5824 6.44102 18.5824 7.19043Z" fill="white"/>
<path d="M9.63074 18.3205C9.63074 18.3205 9.48035 18.3064 9.29285 17.7131C9.10564 17.1198 8.1532 13.9974 8.1532 13.9974L15.7253 9.18877C15.7253 9.18877 16.1625 8.92334 16.1469 9.18877C16.1469 9.18877 16.2249 9.23564 15.9906 9.4542C15.7565 9.67285 10.0424 14.8093 10.0424 14.8093" fill="#DEDFDF"/>
<path d="M12.002 16.4174L9.96421 18.2754C9.96421 18.2754 9.80483 18.3963 9.63062 18.3206L10.0208 14.8694" fill="#B5CFE4"/>
</svg>
