<svg width="25" height="25" viewBox="0 0 25 25" fill="none" xmlns="http://www.w3.org/2000/svg">
<path d="M24.8001 6.29994C24.6001 4.69994 24.0001 3.19994 22.8001 1.99994C21.5001 0.799941 19.9001 0.199941 18.2001 0.0999408C15.3001 -5.92396e-05 8.3001 -0.100059 5.8001 0.299941C3.0001 0.699941 1.2001 2.39994 0.400098 5.09994C-0.199902 7.19994 -0.0999023 16.9999 0.300098 19.0999C0.800098 21.9999 2.5001 23.7999 5.3001 24.5999C7.3001 25.0999 17.0001 24.9999 19.1001 24.6999C22.0001 24.1999 23.8001 22.4999 24.6001 19.6999C25.2001 17.4999 25.0001 8.19994 24.8001 6.29994ZM22.5001 18.7999C22.2001 20.9999 20.7001 22.2999 18.5001 22.5999C16.5001 22.7999 7.5001 22.8999 5.6001 22.3999C3.8001 21.8999 2.8001 20.6999 2.5001 18.8999C2.2001 17.1999 2.1001 8.59994 2.5001 6.29994C2.8001 4.09994 4.3001 2.79994 6.5001 2.49994C8.7001 2.29994 16.7001 2.19994 18.8001 2.59994C21.0001 2.89994 22.3001 4.39994 22.6001 6.59994C22.8001 8.49994 22.8001 16.5999 22.5001 18.7999Z" fill="#D7B46A"/>
<path d="M15.6001 7.79985H17.4001V4.69985C17.1001 4.69985 16.0001 4.59985 14.8001 4.59985C12.2001 4.59985 10.5001 6.19985 10.5001 9.19985V11.8999H7.6001V15.3999H10.4001V24.0999H13.9001V15.3999H16.6001L17.0001 11.8999H13.9001V9.49985C13.9001 8.49985 14.2001 7.79985 15.6001 7.79985Z" fill="#D7B46A"/>
</svg>
