<svg width="25" height="25" viewBox="0 0 25 25" fill="none" xmlns="http://www.w3.org/2000/svg">
<path d="M24.8001 6.29994C24.6001 4.69994 24.0001 3.19994 22.8001 1.99994C21.5001 0.799941 19.9001 0.199941 18.2001 0.0999408C15.3001 -5.92396e-05 8.3001 -0.100059 5.8001 0.299941C3.0001 0.699941 1.2001 2.39994 0.400098 5.09994C-0.199902 7.19994 -0.0999023 16.9999 0.300098 19.0999C0.800098 21.9999 2.5001 23.7999 5.3001 24.5999C7.3001 25.0999 17.0001 24.9999 19.1001 24.6999C22.0001 24.1999 23.8001 22.4999 24.6001 19.6999C25.2001 17.4999 25.0001 8.19994 24.8001 6.29994ZM22.5001 18.7999C22.2001 20.9999 20.7001 22.2999 18.5001 22.5999C16.5001 22.7999 7.5001 22.8999 5.6001 22.3999C3.8001 21.8999 2.8001 20.6999 2.5001 18.8999C2.2001 17.1999 2.1001 8.59994 2.5001 6.29994C2.8001 4.09994 4.3001 2.79994 6.5001 2.49994C8.7001 2.29994 16.7001 2.19994 18.8001 2.59994C21.0001 2.89994 22.3001 4.39994 22.6001 6.59994C22.8001 8.49994 22.8001 16.5999 22.5001 18.7999ZM12.5001 6.09994C9.0001 6.09994 6.1001 8.99994 6.1001 12.4999C6.1001 15.9999 9.0001 18.8999 12.5001 18.8999C16.0001 18.8999 18.9001 15.9999 18.9001 12.4999C18.9001 8.99994 16.0001 6.09994 12.5001 6.09994ZM12.5001 16.5999C10.2001 16.5999 8.4001 14.6999 8.4001 12.3999C8.4001 10.0999 10.3001 8.29994 12.6001 8.29994C14.9001 8.29994 16.7001 10.1999 16.7001 12.4999C16.6001 14.7999 14.8001 16.5999 12.5001 16.5999ZM20.7001 5.79994C20.7001 6.59994 20.0001 7.29994 19.2001 7.29994C18.4001 7.29994 17.7001 6.59994 17.7001 5.79994C17.7001 4.99994 18.4001 4.29994 19.2001 4.29994C20.0001 4.29994 20.7001 4.99994 20.7001 5.79994Z" fill="#D7B46A"/>
</svg>
