<svg width="64" height="55" viewBox="0 0 64 55" fill="none" xmlns="http://www.w3.org/2000/svg">
<g clip-path="url(#clip0)">
<path d="M0 4.46087C0 4.46087 0 0.547594 2.98166 0.488122C5.96332 0.42865 5.91636 4.05646 5.91636 4.05646L6.16288 27.096C6.16288 27.096 6.11592 27.5956 6.76156 27.6551C7.40719 27.7027 12.0558 7.68427 12.5371 6.23315C13.2531 4.06836 15.6713 1.10663 18.0073 0.500016C20.3434 -0.118496 20.6486 0.0361323 20.6486 0.0361323C20.6486 0.0361323 13.4292 23.4207 13.5349 24.3365C13.6288 25.2405 23.2311 54.2749 23.2311 54.2749C23.2311 54.2749 18.3595 54.5722 16.5635 51.0039C14.7674 47.4237 10.9406 31.7468 10.3888 31.6992C9.83712 31.6516 7.05503 38.3244 7.10198 38.9429C7.14894 39.5614 7.41893 48.066 7.26632 51.0991C7.20763 52.229 6.562 54.7745 4.34336 54.7626C2.33602 54.7507 1.61996 52.2409 1.59648 51.0277C1.44387 38.0865 0 4.46087 0 4.46087Z" fill="#E89D94"/>
<path d="M26.0483 3.23528C27.1283 1.59384 28.8421 0.202191 33.8076 0.0237738C38.9845 -0.166538 41.7079 1.77226 41.7196 2.30751C41.7431 3.38991 38.3623 4.98377 35.8267 5.23355C33.2911 5.48333 31.9764 5.75691 31.2721 6.47057C30.5795 7.17235 30.4738 10.027 30.5795 13.8808C30.6734 17.7346 30.4386 23.8841 31.7533 24.3361C33.0681 24.788 35.3924 24.6453 37.2471 25.014C39.3249 25.4304 41.4027 26.9409 41.4027 27.4048C41.4027 27.8687 39.1136 29.3555 37.7988 29.6767C36.4841 30.0097 32.7981 29.6529 31.906 30.6877C31.0138 31.7225 31.2603 37.8482 31.2838 40.1676C31.3073 42.487 31.0842 47.4232 32.7277 48.8624C34.3711 50.3017 37.7988 49.7902 39.3484 50.0519C40.8861 50.3017 43.1752 52.0739 43.1752 52.5021C43.1752 52.9304 41.4848 54.5242 39.2897 54.7978C37.1062 55.0714 29.7577 55.7018 27.3513 52.2999C24.9331 48.8981 25.7079 45.9721 25.5318 39.9535C25.3557 33.9349 24.5575 14.0236 24.487 11.6447C24.4049 9.25388 24.2288 5.9829 26.0483 3.23528Z" fill="#E89D94"/>
<path d="M48.176 0.749345C48.7043 0.713661 50.7585 2.9974 50.9229 5.62607C51.0872 8.24286 51.2868 27.4643 51.322 29.9265C51.3572 32.3767 51.1929 46.1624 53.0476 48.0774C54.9023 49.9924 58.8466 49.6951 60.5487 49.9924C62.2391 50.2898 64.0586 51.7766 63.9999 52.2762C63.9295 52.7757 62.0278 54.6075 59.6918 54.7859C57.4379 54.9524 51.8972 55.8088 48.5869 52.4546C45.2648 49.0884 45.6639 33.4353 45.6639 29.2723C45.6639 25.1092 45.1004 7.86223 45.4291 5.85207C45.793 3.55644 47.2486 0.820711 48.176 0.749345Z" fill="#E89D94"/>
</g>
<defs>
<clipPath id="clip0">
<rect width="64" height="55" fill="white"/>
</clipPath>
</defs>
</svg>
