<svg width="80" height="80" viewBox="0 0 80 80" fill="none" xmlns="http://www.w3.org/2000/svg">
<g clip-path="url(#clip0)">
<path d="M76.4256 3.57471H3.4043V76.596H76.4256V3.57471Z" fill="#ED3A4D"/>
<path d="M76.4255 80.0002H3.40426C1.53191 80.0002 0 78.4683 0 76.5959V3.57467C0 1.70232 1.53191 0.17041 3.40426 0.17041H76.4255C78.2979 0.17041 79.8298 1.70232 79.8298 3.57467V76.5959C79.8298 78.4683 78.4681 80.0002 76.4255 80.0002ZM6.80851 73.1917H73.0213V6.97892H6.80851V73.1917Z" fill="#ED3A4D"/>
<path d="M57.0213 37.7873V30.6383C57.0213 29.2766 56 28.2554 54.6383 28.2554H49.7022C48.3404 28.2554 47.3192 29.2766 47.3192 30.6383V37.7873C47.3192 40.6809 45.617 43.4043 43.0639 44.5958C37.4468 47.3192 33.7021 52.4256 33.7021 58.383C33.7021 67.2341 42.0426 74.383 52.2553 74.383C62.4681 74.383 70.8085 67.2341 70.8085 58.383C70.8085 52.4256 67.0638 47.3192 61.4468 44.5958C58.5532 43.4043 57.0213 40.6809 57.0213 37.7873Z" fill="white"/>
<path d="M52.2556 41.0214C51.4045 41.0214 50.5535 40.3406 50.5535 39.3193L50.213 22.6385L31.1492 14.8087L15.1492 34.3831C14.4684 35.064 13.4471 35.2342 12.7662 34.5533C12.0854 34.0427 11.9152 33.0214 12.596 32.3406L29.4471 11.7448C29.9577 11.2342 30.6386 10.8938 31.4896 11.2342L52.596 19.9151C53.2769 20.2555 53.6173 20.7661 53.6173 21.447L54.1279 39.3193C53.9577 40.1704 53.2769 41.0214 52.2556 41.0214Z" fill="white"/>
<path d="M51.745 23.1493C51.2344 23.1493 50.7238 22.9791 50.3833 22.4685C49.8727 21.7876 50.0429 20.5961 50.7238 20.0855L61.7876 12.0855C62.4684 11.5748 63.6599 11.7451 64.1706 12.4259C64.6812 13.1068 64.511 14.2982 63.8301 14.8089L52.7663 22.9791C52.4259 23.1493 52.0855 23.1493 51.745 23.1493Z" fill="white"/>
<path d="M13.2763 14.9789C12.4253 14.9789 11.5742 14.298 11.5742 13.2767C11.5742 12.2555 12.2551 11.5746 13.2763 11.5746L30.6381 11.064C31.6593 11.064 32.3402 11.7448 32.3402 12.7661C32.3402 13.7874 31.6593 14.4682 30.6381 14.4682L13.2763 14.9789Z" fill="white"/>
<path d="M24.1703 34.3833C23.4895 34.3833 22.8086 33.8727 22.6384 33.1919L19.7448 24.6812C19.4044 23.8302 19.915 22.8089 20.7661 22.4684C21.6172 22.128 22.6384 22.6387 22.9789 23.4897L25.8725 32.0004C26.2129 32.8514 25.7023 33.8727 24.8512 34.2131C24.681 34.3833 24.3406 34.3833 24.1703 34.3833Z" fill="white"/>
<path d="M41.1914 18.8939C40.1701 18.8939 39.4893 18.0428 39.4893 17.1918V8.68113C39.4893 7.65985 40.1701 6.979 41.1914 6.979C42.2127 6.979 42.8935 7.83007 42.8935 8.68113V17.1918C42.8935 18.0428 42.2127 18.8939 41.1914 18.8939Z" fill="white"/>
<path d="M73.532 22.4687C73.3618 22.4687 73.3618 22.4687 73.1916 22.4687L56.6809 19.575C55.8299 19.4048 55.149 18.5538 55.3192 17.5325C55.4894 16.6814 56.3405 16.0006 57.3618 16.1708L73.8724 19.0644C74.7235 19.2346 75.4043 20.0857 75.2341 21.107C75.0639 21.958 74.2128 22.4687 73.532 22.4687Z" fill="white"/>
<path d="M19.9151 14.8084C19.2342 14.8084 18.7236 14.468 18.3831 13.7872L14.8087 6.29781C14.4682 5.44674 14.8087 4.42547 15.6597 4.08504C16.5108 3.74462 17.5321 4.08504 17.8725 4.93611L21.6172 12.5957C21.9576 13.4467 21.6172 14.468 20.7661 14.8084C20.4257 14.8084 20.2555 14.8084 19.9151 14.8084Z" fill="white"/>
</g>
<defs>
<clipPath id="clip0">
<rect width="80" height="80" fill="white"/>
</clipPath>
</defs>
</svg>
