<svg width="26" height="25" viewBox="0 0 26 25" fill="none" xmlns="http://www.w3.org/2000/svg">
<path d="M25.496 6.28944C25.2906 4.68944 24.6744 3.18944 23.4419 1.98944C22.1068 0.789443 20.4636 0.189443 18.7176 0.0894427C15.7392 -0.0105573 8.55002 -0.110557 5.98245 0.289443C3.10677 0.689443 1.25811 2.38944 0.436488 5.08944C-0.17973 7.18944 -0.0770272 16.9894 0.333785 19.0894C0.847299 21.9894 2.59325 23.7894 5.46893 24.5894C7.52299 25.0894 17.4852 24.9894 19.6419 24.6894C22.6203 24.1894 24.469 22.4894 25.2906 19.6894C25.9068 17.4894 25.7014 8.18944 25.496 6.28944ZM23.1338 18.7894C22.8257 20.9894 21.2852 22.2894 19.0257 22.5894C16.9717 22.7894 7.7284 22.8894 5.77704 22.3894C3.92839 21.8894 2.90136 20.6894 2.59325 18.8894C2.28514 17.1894 2.18244 8.58944 2.59325 6.28944C2.90136 4.08944 4.4419 2.78944 6.70137 2.48944C8.96083 2.28944 17.1771 2.18944 19.3338 2.58944C21.5933 2.88944 22.9284 4.38944 23.2365 6.58944C23.442 8.48944 23.442 16.5894 23.1338 18.7894Z" fill="#ED3A4D"/>
<path d="M16.0473 7.78936H17.8959V4.68936C17.5878 4.68936 16.4581 4.58936 15.2257 4.58936C12.5554 4.58936 10.8094 6.18936 10.8094 9.18936V11.8894H7.83105V15.3894H10.7067V24.0894H14.3013V15.3894H17.0743L17.4851 11.8894H14.3013V9.48936C14.3013 8.48936 14.6094 7.78936 16.0473 7.78936Z" fill="#ED3A4D"/>
</svg>
