<svg width="80" height="80" viewBox="0 0 80 80" fill="none" xmlns="http://www.w3.org/2000/svg">
<path d="M18.9712 56.6855V78.9713C18.9712 79.4284 19.5426 79.7713 19.9998 79.5427L39.9998 69.8284L59.9998 79.657C60.4569 79.8855 61.0283 79.5427 61.0283 79.0855V56.6855C55.0855 61.5998 47.6569 64.2284 39.9998 64.2284C32.3426 64.2284 24.914 61.5998 18.9712 56.6855Z" fill="#ED3A4D"/>
<path d="M70.9712 30.9714C70.9712 13.8286 57.0283 0 39.9998 0C22.9712 0 9.02832 13.8286 9.02832 30.9714C9.02832 39.8857 12.7997 47.8857 18.8569 53.6C24.3426 58.7429 31.7712 61.9429 39.8855 61.9429C47.9998 61.9429 55.4283 58.7429 60.914 53.6C67.0855 47.8857 70.9712 39.8857 70.9712 30.9714Z" fill="#ED3A4D"/>
<path d="M36.107 42.6671L36.1146 42.6754L36.1226 42.6834C36.5642 43.125 37.1214 43.3424 37.7577 43.3424C38.296 43.3424 38.9431 43.133 39.3928 42.6834L39.4023 42.6738L39.4113 42.6638L55.8919 24.3046C56.7752 23.4096 56.6595 21.9819 55.7846 21.2038C54.8865 20.3192 53.4535 20.4391 52.6776 21.3214L37.6704 37.8293L28.4756 27.8135C27.6693 26.8979 26.2413 26.934 25.3821 27.6858C24.4615 28.4914 24.4964 29.9228 25.2496 30.7836L25.2495 30.7836L25.2568 30.7916L36.107 42.6671Z" fill="white" stroke="white"/>
</svg>
