<svg width="26" height="25" viewBox="0 0 26 25" fill="none" xmlns="http://www.w3.org/2000/svg">
<path d="M25.7394 6.28944C25.534 4.68944 24.9177 3.18944 23.6853 1.98944C22.3502 0.789443 20.7069 0.189443 18.961 0.0894427C15.9826 -0.0105573 8.79341 -0.110557 6.22584 0.289443C3.35017 0.689443 1.50152 2.38944 0.679895 5.08944C0.0636784 7.18944 0.166381 16.9894 0.577192 19.0894C1.09071 21.9894 2.83665 23.7894 5.71233 24.5894C7.76638 25.0894 17.7285 24.9894 19.8853 24.6894C22.8637 24.1894 24.7123 22.4894 25.534 19.6894C26.1502 17.4894 25.9448 8.18944 25.7394 6.28944ZM23.3772 18.7894C23.0691 20.9894 21.5285 22.2894 19.2691 22.5894C17.215 22.7894 7.97179 22.8894 6.02044 22.3894C4.17179 21.8894 3.14476 20.6894 2.83665 18.8894C2.52854 17.1894 2.42584 8.58944 2.83665 6.28944C3.14476 4.08944 4.6853 2.78944 6.94476 2.48944C9.20422 2.28944 17.4204 2.18944 19.5772 2.58944C21.8367 2.88944 23.1718 4.38944 23.4799 6.58944C23.6853 8.48944 23.6853 16.5894 23.3772 18.7894ZM13.1069 6.08944C9.51233 6.08944 6.53395 8.98944 6.53395 12.4894C6.53395 15.9894 9.51233 18.8894 13.1069 18.8894C16.7015 18.8894 19.6799 15.9894 19.6799 12.4894C19.6799 8.98944 16.7015 6.08944 13.1069 6.08944ZM13.1069 16.5894C10.7448 16.5894 8.89611 14.6894 8.89611 12.3894C8.89611 10.0894 10.8475 8.28944 13.2096 8.28944C15.5718 8.28944 17.4204 10.1894 17.4204 12.4894C17.3177 14.7894 15.4691 16.5894 13.1069 16.5894ZM21.5285 5.78944C21.5285 6.58944 20.8096 7.28944 19.988 7.28944C19.1664 7.28944 18.4475 6.58944 18.4475 5.78944C18.4475 4.98944 19.1664 4.28944 19.988 4.28944C20.8096 4.28944 21.5285 4.98944 21.5285 5.78944Z" fill="#ED3A4D"/>
</svg>
