<svg width="159" height="57" viewBox="0 0 159 57" fill="none" xmlns="http://www.w3.org/2000/svg">
<path d="M0 48.2754H1.06742L2.83888 53.6044L4.63305 48.2529H5.45065L7.26753 53.6044L9.03899 48.2754H10.0837L7.72175 54.9535H6.85873L5.06456 49.7145L3.24768 54.9535H2.36195L0 48.2754Z" fill="#1E1E1E"/>
<path d="M15.012 45.7344H16.1475V46.8137H15.012V45.7344ZM15.0574 48.2752H16.0567V54.9083H15.0574V48.2752Z" fill="#1E1E1E"/>
<path d="M21.7344 48.2756H22.7337V49.4223C23.1652 48.7028 23.8692 48.1182 25.0275 48.1182C26.64 48.1182 27.5938 49.1975 27.5938 50.7714V54.8862H26.5945V51.0412C26.5945 49.8046 25.9132 49.0401 24.7322 49.0401C23.574 49.0401 22.7337 49.872 22.7337 51.1087V54.9087H21.7344V48.2756Z" fill="#1E1E1E"/>
<path d="M32.7947 51.5807C32.7947 49.4221 34.3845 48.1405 35.9969 48.1405C37.246 48.1405 38.0409 48.815 38.5633 49.5571V45.5547H39.5626V54.9085H38.5633V53.5819C38.0182 54.3689 37.2233 55.0659 35.9969 55.0659C34.3845 55.0434 32.7947 53.7843 32.7947 51.5807ZM38.586 51.5807C38.586 50.0517 37.405 49.0174 36.1559 49.0174C34.8614 49.0174 33.794 49.9618 33.794 51.6032C33.794 53.1772 34.8841 54.1665 36.1559 54.1665C37.405 54.1665 38.586 53.1322 38.586 51.5807Z" fill="#1E1E1E"/>
<path d="M44.8091 51.6033C44.8091 49.7371 46.2853 48.1406 48.3066 48.1406C50.3051 48.1406 51.7814 49.7146 51.7814 51.6033C51.7814 53.4696 50.2824 55.0661 48.2612 55.0661C46.2853 55.0661 44.8091 53.4921 44.8091 51.6033ZM50.7821 51.6033C50.7821 50.1868 49.7147 49.0175 48.2839 49.0175C46.8304 49.0175 45.8311 50.1868 45.8311 51.6033C45.8311 53.0199 46.8985 54.1891 48.3066 54.1891C49.7601 54.1667 50.7821 53.0199 50.7821 51.6033Z" fill="#1E1E1E"/>
<path d="M56.1189 48.2754H57.1863L58.9578 53.6044L60.7519 48.2529H61.5923L63.4091 53.6044L65.1806 48.2754H66.2253L63.8634 54.9535H63.0003L61.2062 49.7145L59.3893 54.9535H58.5036L56.1189 48.2754Z" fill="#1E1E1E"/>
<path d="M70.4951 54.0542L70.9948 53.3571C71.7215 53.8968 72.5164 54.2116 73.3113 54.2116C74.1062 54.2116 74.6967 53.8068 74.6967 53.1323C74.6967 52.4577 73.9018 52.2104 73.016 51.9631C71.9713 51.6708 70.7904 51.311 70.7904 50.0743C70.7904 48.9276 71.7442 48.1855 73.0615 48.1855C73.8791 48.1855 74.7875 48.4779 75.4688 48.9276L75.0146 49.6696C74.4014 49.2648 73.6747 49.0175 73.0388 49.0175C72.2439 49.0175 71.7442 49.4222 71.7442 50.0068C71.7442 50.6364 72.5845 50.8838 73.4703 51.1536C74.515 51.4684 75.6278 51.8506 75.6278 53.0873C75.6278 54.3465 74.5831 55.066 73.2432 55.066C72.312 55.0435 71.2446 54.6613 70.4951 54.0542Z" fill="#1E1E1E"/>
<path d="M88.1189 54.0542L88.6185 53.3571C89.3453 53.8968 90.1402 54.2116 90.9351 54.2116C91.73 54.2116 92.3204 53.8068 92.3204 53.1323C92.3204 52.4577 91.5256 52.2104 90.6398 51.9631C89.5951 51.6708 88.4141 51.311 88.4141 50.0743C88.4141 48.9276 89.368 48.1855 90.6852 48.1855C91.5028 48.1855 92.4113 48.4779 93.0926 48.9276L92.6384 49.6696C92.0252 49.2648 91.2985 49.0175 90.6625 49.0175C89.8677 49.0175 89.368 49.4222 89.368 50.0068C89.368 50.6364 90.2083 50.8838 91.094 51.1536C92.1388 51.4684 93.2516 51.8506 93.2516 53.0873C93.2516 54.3465 92.2069 55.066 90.8669 55.066C89.9358 55.0435 88.8684 54.6613 88.1189 54.0542Z" fill="#1E1E1E"/>
<path d="M98.1116 56.6624L98.4523 55.8754C98.7703 56.0328 99.0655 56.1227 99.497 56.1227C100.088 56.1227 100.474 55.8079 100.86 54.886L97.8164 48.2754H98.9065L101.337 53.8067L103.494 48.2754H104.562L101.745 55.1334C101.178 56.505 100.519 56.9996 99.5197 56.9996C98.9747 56.9996 98.5659 56.8872 98.1116 56.6624Z" fill="#1E1E1E"/>
<path d="M108.809 54.0542L109.308 53.3571C110.035 53.8968 110.83 54.2116 111.625 54.2116C112.42 54.2116 113.01 53.8068 113.01 53.1323C113.01 52.4577 112.215 52.2104 111.33 51.9631C110.285 51.6708 109.104 51.311 109.104 50.0743C109.104 48.9276 110.058 48.1855 111.375 48.1855C112.193 48.1855 113.101 48.4779 113.782 48.9276L113.328 49.6696C112.715 49.2648 111.988 49.0175 111.352 49.0175C110.557 49.0175 110.058 49.4222 110.058 50.0068C110.058 50.6364 110.898 50.8838 111.784 51.1536C112.828 51.4684 113.941 51.8506 113.941 53.0873C113.941 54.3465 112.897 55.066 111.557 55.066C110.603 55.0435 109.558 54.6613 108.809 54.0542Z" fill="#1E1E1E"/>
<path d="M119.574 53.1549V49.1525H118.643V48.2756H119.574V46.2744H120.573V48.2756H122.708V49.1525H120.573V53.02C120.573 53.8294 121.027 54.1217 121.709 54.1217C122.049 54.1217 122.322 54.0543 122.685 53.8969V54.7513C122.344 54.9312 121.958 55.0436 121.481 55.0436C120.391 55.0212 119.574 54.504 119.574 53.1549Z" fill="#1E1E1E"/>
<path d="M130.475 54.2116C131.406 54.2116 132.042 53.8294 132.587 53.2673L133.2 53.8294C132.519 54.5714 131.701 55.0661 130.429 55.0661C128.59 55.0661 127.091 53.672 127.091 51.6033C127.091 49.6696 128.453 48.1406 130.293 48.1406C132.269 48.1406 133.404 49.7146 133.404 51.6483C133.404 51.7383 133.404 51.8507 133.382 51.9856H128.067C128.272 53.4022 129.294 54.2116 130.475 54.2116ZM132.428 51.1986C132.314 49.9844 131.61 48.9726 130.293 48.9726C129.135 48.9726 128.249 49.917 128.113 51.1986H132.428Z" fill="#1E1E1E"/>
<path d="M138.674 48.2755H139.673V49.3998C140.104 48.7477 140.718 48.1406 141.83 48.1406C142.921 48.1406 143.625 48.7252 143.988 49.4673C144.465 48.7252 145.169 48.1406 146.35 48.1406C147.894 48.1406 148.848 49.1749 148.848 50.8164V54.9312H147.849V51.0412C147.849 49.7596 147.19 49.04 146.123 49.04C145.124 49.04 144.261 49.782 144.261 51.0862V54.9087H143.284V51.0187C143.284 49.782 142.625 49.04 141.558 49.04C140.49 49.04 139.696 49.917 139.696 51.1312V54.9087H138.696V48.2755H138.674Z" fill="#1E1E1E"/>
<path d="M153.845 54.0542L154.344 53.3571C155.071 53.8968 155.866 54.2116 156.661 54.2116C157.456 54.2116 158.046 53.8068 158.046 53.1323C158.046 52.4577 157.251 52.2104 156.366 51.9631C155.321 51.6708 154.14 51.311 154.14 50.0743C154.14 48.9276 155.094 48.1855 156.411 48.1855C157.229 48.1855 158.137 48.4779 158.818 48.9276L158.364 49.6696C157.751 49.2648 157.024 49.0175 156.388 49.0175C155.593 49.0175 155.094 49.4222 155.094 50.0068C155.094 50.6364 155.934 50.8838 156.82 51.1536C157.865 51.4684 158.977 51.8506 158.977 53.0873C158.977 54.3465 157.933 55.066 156.593 55.066C155.639 55.0435 154.594 54.6613 153.845 54.0542Z" fill="#1E1E1E"/>
<path d="M159 35.9766H0V38.8996H159V35.9766Z" fill="#1E1E1E"/>
<path d="M159 0H0V2.92308H159V0Z" fill="#1E1E1E"/>
<path d="M0 2.92285L19.259 35.9761L24.5506 26.8921L10.5606 2.92285H0Z" fill="#1E1E1E"/>
<path d="M38.5407 2.92285H25.7771L32.1589 13.8731L38.5407 2.92285Z" fill="#1E1E1E"/>
<path d="M47.0571 10.4775H50.5773L56.0507 24.261L61.4786 10.4775H64.9307L57.3906 28.5556H54.5972L47.0571 10.4775Z" fill="#1E1E1E"/>
<path d="M70.9038 10.4775H74.0834V28.4207H70.9038V10.4775Z" fill="#1E1E1E"/>
<path d="M85.8704 13.4006H80.1245V10.4775H94.8413V13.4006H89.0954V28.4207H85.8931V13.4006H85.8704Z" fill="#1E1E1E"/>
<path d="M100.814 10.4775H108.899C113.146 10.4775 115.622 12.7261 115.622 16.1888C115.622 19.1343 113.828 20.9107 111.307 21.6302L116.19 28.4207H112.442L107.945 22.1698H104.016V28.4207H100.837V10.4775H100.814ZM108.672 19.3592C110.943 19.3592 112.397 18.19 112.397 16.3012C112.397 14.39 110.989 13.3332 108.65 13.3332H104.016V19.3592H108.672Z" fill="#1E1E1E"/>
<path d="M129.453 10.3428H132.405L140.377 28.4209H137.016L135.176 24.0812H126.614L124.752 28.4209H121.481L129.453 10.3428ZM134.018 21.2931L130.884 14.1203L127.772 21.2931H134.018Z" fill="#1E1E1E"/>
<path d="M146.282 10.4775H149.461V25.5426H159V28.4207H146.282V10.4775Z" fill="#1E1E1E"/>
</svg>
