<svg width="547" height="372" viewBox="0 0 547 372" fill="none" xmlns="http://www.w3.org/2000/svg">
<g clip-path="url(#clip0)">
<path d="M0 372C0 372 50.5533 158.07 107.074 140.106C163.624 122.172 178.315 160.342 205.151 157.888C231.988 155.434 322.069 80.1862 354.237 50.3171C409.031 -0.514817 562.811 -30.0204 530.734 47.2575C503.868 111.964 408.274 214.324 422.298 242.436C425.024 247.889 483.271 210.598 498.991 215.445C569.445 237.256 475.274 371.97 475.274 371.97H0V372Z" fill="#F2F2F2"/>
<path d="M546.546 74.0364H492.66V54.6185H506.866C507.109 54.6185 507.321 54.4065 507.321 54.1641C507.321 53.9218 507.109 53.7097 506.866 53.7097H473.881V35.443H523.525C523.768 35.443 523.98 35.2309 523.98 34.9886C523.98 34.7462 523.768 34.5342 523.525 34.5342H428.416C428.174 34.5342 427.962 34.7462 427.962 34.9886C427.962 35.2309 428.174 35.443 428.416 35.443H438.563V53.7097H411.757C411.515 53.7097 411.302 53.9218 411.302 54.1641C411.302 54.4065 411.515 54.6185 411.757 54.6185H459.675V74.0364H451.436C451.194 74.0364 450.982 74.2485 450.982 74.4908C450.982 74.7332 451.194 74.9452 451.436 74.9452H546.546C546.788 74.9452 547 74.7332 547 74.4908C547 74.2485 546.788 74.0364 546.546 74.0364ZM439.472 53.7097V35.443H473.002V53.7097H439.472ZM491.752 74.0364H460.553V54.6185H491.752V74.0364Z" fill="white"/>
<path d="M98.1081 308.475H71.3018V290.209H81.4488C81.6911 290.209 81.9031 289.997 81.9031 289.754C81.9031 289.512 81.6911 289.3 81.4488 289.3H18.9007C18.6584 289.3 18.4464 289.512 18.4464 289.754C18.4464 289.997 18.6584 290.209 18.9007 290.209H35.9841V308.475H2.99869C2.75638 308.475 2.54435 308.687 2.54435 308.93C2.54435 309.172 2.75638 309.384 2.99869 309.384H17.2045V328.802H2.24145C1.99914 328.802 1.78711 329.014 1.78711 329.256C1.78711 329.499 1.99914 329.711 2.24145 329.711H58.4287C58.671 329.711 58.883 329.499 58.883 329.256C58.883 329.014 58.671 328.802 58.4287 328.802H50.1899V309.384H98.1081C98.3504 309.384 98.5624 309.172 98.5624 308.93C98.5624 308.687 98.3504 308.475 98.1081 308.475ZM49.2812 328.802H18.0829V309.384H49.2812V328.802ZM36.8625 308.475V290.209H70.3931V308.475H36.8625Z" fill="white"/>
<path d="M312.589 350.28V359.792H299.413L298.292 350.765L312.589 350.28Z" fill="white"/>
<path d="M313.073 360.276H298.958L297.747 350.28L313.104 349.765L313.073 360.276ZM299.837 359.307H312.104L312.134 350.795L298.898 351.249L299.837 359.307Z" fill="#9E9E9E"/>
<path d="M313.315 359.217C313.315 359.217 332.368 365.275 333.034 370.243H298.867V359.217H313.315Z" fill="#CCCCCC"/>
<path d="M259.461 350.492L259.097 360.095H245.921L245.315 350.28L259.461 350.492Z" fill="white"/>
<path d="M259.582 360.61H245.467L244.77 349.795L259.976 350.007L259.582 360.61ZM246.376 359.61H258.613L258.946 350.977L245.83 350.795L246.376 359.61Z" fill="#9E9E9E"/>
<path d="M259.824 359.52C259.824 359.52 278.876 365.578 279.543 370.546H245.376V359.52H259.824Z" fill="#CCCCCC"/>
<path d="M280.785 368.668V372.001H244.498V368.244L280.785 368.668Z" fill="#9E9E9E"/>
<path d="M297.777 368.153V372.001H334.094V367.941L297.777 368.153Z" fill="#9E9E9E"/>
<path d="M263.853 352.219H242.862L241.075 184.062L301.533 194.513L315.921 352.219H295.748L274.606 247.435L277.029 224.473L263.853 352.219Z" fill="#9E9E9E"/>
<path d="M286.297 205.146C286.297 205.146 286.085 219.08 283.662 219.535H260.49C259.733 218.808 258.522 214.658 265.791 214.506C273.061 214.355 275.211 214.506 275.211 214.506L274.878 205.176H286.297V205.146Z" fill="white"/>
<path d="M283.723 219.928H260.339L260.218 219.807C259.703 219.292 259.218 217.959 259.703 216.717C260.157 215.536 261.581 214.142 265.791 214.051C271.274 213.93 273.818 213.991 274.787 214.021L274.454 204.691H286.721V205.115C286.661 208.447 286.327 219.413 283.753 219.898L283.723 219.928ZM260.702 219.08H283.632C284.874 218.747 285.752 211.901 285.873 205.539H275.332L275.666 214.9L275.211 214.869C275.181 214.869 272.97 214.718 265.821 214.869C262.096 214.96 260.854 216.081 260.49 217.02C260.157 217.868 260.46 218.747 260.702 219.08Z" fill="#9E9E9E"/>
<path d="M314.406 93.7575C314.406 93.7575 308.803 108.813 309.59 110.873C310.378 112.903 310.499 120.779 310.499 120.779L295.324 149.951L270.426 140.682L275.757 114.084C275.757 114.084 289.962 107.692 291.174 105.935C292.87 103.482 296.717 89.062 296.717 89.062L314.406 93.7575Z" fill="white"/>
<path d="M295.536 150.557L269.88 140.984L275.333 113.751L275.545 113.66C281.209 111.115 289.932 106.874 290.78 105.663C292.416 103.33 296.232 89.0923 296.263 88.9408C296.323 88.6985 296.596 88.547 296.838 88.6076C297.08 88.6682 297.232 88.9408 297.171 89.1832C297.02 89.789 293.294 103.724 291.568 106.208C290.356 107.965 278.392 113.418 276.181 114.417L271.001 140.409L295.142 149.406L310.075 120.688C310.044 119.719 309.893 112.872 309.196 111.055C308.378 108.965 313.073 96.1506 314.012 93.606C314.103 93.3636 314.376 93.2425 314.618 93.3333C314.86 93.4242 314.982 93.6969 314.891 93.9392C312.74 99.6949 309.56 109.358 310.075 110.722C310.862 112.812 311.014 120.476 311.014 120.779V120.9L310.953 120.991L295.536 150.557Z" fill="#9E9E9E"/>
<path d="M320.434 61.8589C323.463 63.2524 330.853 66.524 328.975 72.1283C326.825 78.5504 322.978 86.4266 320.888 90.5465C320.07 92.1823 318.162 92.9397 316.436 92.3641L297.08 85.8814C295.293 85.2755 294.264 83.4579 294.657 81.61C295.96 75.4302 298.837 62.4042 300.2 60.7683C304.744 55.1338 315.618 59.6778 320.434 61.8589Z" fill="#9E9E9E"/>
<path d="M297.202 90.5769C296.535 89.1531 297.535 84.7 299.049 79.7623C299.08 79.6108 299.049 79.4593 298.958 79.3684C297.929 78.187 296.656 75.9453 297.505 73.5522C298.262 71.4619 299.625 72.401 300.594 73.4916C300.776 73.6733 301.079 73.6127 301.17 73.3704C303.229 67.4935 305.289 62.4346 305.289 62.4346L328.279 70.129C328.279 70.129 326.461 75.3698 324.281 81.2163C324.19 81.489 318.495 95.2421 317.526 96.3326C316.981 96.9385 316.224 97.302 315.285 97.514C315.285 97.514 313.407 98.2411 305.047 95.4238L297.202 90.5769Z" fill="white"/>
<path d="M314.497 98.0592C313.225 98.0592 310.438 97.7259 304.925 95.8781C304.683 95.7872 304.562 95.5448 304.622 95.2722C304.713 95.0299 304.986 94.9087 305.228 94.9693C313.134 97.6048 315.133 97.0595 315.163 97.0595H315.224C316.102 96.8474 316.769 96.5142 317.223 96.0295C318.101 95.0602 323.675 81.61 323.887 81.0647C325.704 76.2784 327.249 71.8253 327.733 70.4318L305.622 63.0403C305.107 64.3732 303.381 68.7051 301.654 73.552C301.563 73.8246 301.321 74.0367 301.048 74.0973C300.776 74.1579 300.503 74.067 300.291 73.8549C299.655 73.1279 299.049 72.7644 298.686 72.825C298.352 72.8856 298.11 73.3702 297.989 73.7338C297.111 76.1572 298.655 78.2777 299.352 79.0957C299.564 79.338 299.625 79.6409 299.534 79.9439C297.201 87.5777 297.353 89.7891 297.656 90.4253C297.777 90.6676 297.656 90.9403 297.444 91.0615C297.201 91.1826 296.929 91.0615 296.808 90.8494C296.141 89.4862 296.747 85.8207 298.625 79.7318C297.807 78.7927 296.081 76.3087 297.111 73.4611C297.444 72.5826 297.898 72.0676 298.534 71.9465C299.231 71.795 300.018 72.1888 300.866 73.0976C302.896 67.3722 304.925 62.3738 304.925 62.3132L305.077 61.9194L328.945 69.9168L328.794 70.3712C328.763 70.4318 326.946 75.7028 324.795 81.4585C324.735 81.5797 319.04 95.5145 317.95 96.7263C317.374 97.3624 316.557 97.8168 315.496 98.0592C315.315 97.9683 315.042 98.0592 314.497 98.0592Z" fill="#9E9E9E"/>
<path d="M322.524 70.9469C325.552 71.7648 331.519 72.4918 332.883 66.4332C334.246 60.3745 332.398 62.1316 332.398 62.1316C332.398 62.1316 330.762 63.0403 330.278 62.9495C329.793 62.8586 330.641 63.4947 330.671 58.1328C330.671 58.1328 326.552 55.8609 323.735 58.0117C320.918 60.1625 320.07 58.1631 319.828 56.5273C319.616 55.1338 317.253 56.0729 316.496 57.1635C315.375 58.2843 308.833 55.3762 306.5 55.7094C302.805 56.2547 301.502 56.5879 300.2 60.7986C299.958 61.6166 298.625 69.8563 298.625 69.8563L303.895 62.4648C303.895 62.4648 317.586 69.614 322.524 70.9469Z" fill="#9E9E9E"/>
<path d="M291.81 106.48C291.81 106.48 310.953 113.236 311.71 113.296C312.467 113.357 299.776 200.056 299.776 200.056L259.521 187.121L291.81 106.48Z" fill="white"/>
<path d="M265.125 209.295C264.852 209.295 264.64 209.083 264.64 208.811V137.773C264.64 137.501 264.852 137.289 265.125 137.289C265.397 137.289 265.609 137.501 265.609 137.773V208.811C265.64 209.083 265.397 209.295 265.125 209.295Z" fill="#9E9E9E"/>
<path d="M320.252 152.95C321.706 155.525 353.025 132.533 353.48 130.776C354.54 126.747 351.965 123.051 352.268 121.87C352.722 120.022 356.569 125.868 357.417 127.565C357.569 127.868 357.781 127.868 358.053 127.716C361.446 125.838 370.381 120.415 370.836 122.294C371.26 124.02 362.324 128.292 362.415 128.716C362.597 129.837 363.415 133.926 358.932 135.744C356.024 136.925 348.179 164.825 333.034 161.887C317.92 158.948 318.828 150.375 320.252 152.95Z" fill="white"/>
<path d="M335.306 162.614C334.549 162.614 333.761 162.553 332.974 162.372C321.766 160.191 319.101 154.92 319.04 153.072C319.01 152.254 319.434 152.042 319.586 152.011C319.798 151.951 320.252 151.951 320.676 152.678C321.433 152.86 325.734 150.981 337.396 142.802C345.665 136.986 352.571 131.533 353.025 130.655C353.661 128.201 352.874 125.838 352.268 124.111C351.905 123.081 351.662 122.324 351.783 121.779C351.935 121.173 352.359 121.052 352.51 121.052C352.541 121.052 352.571 121.052 352.571 121.052C354.237 121.052 357.447 126.686 357.781 127.322C358.205 127.08 358.689 126.807 359.265 126.474C365.626 122.839 369.351 120.961 370.714 121.567C371.017 121.688 371.199 121.93 371.29 122.233C371.623 123.506 369.351 125.111 364.808 127.777C364.081 128.201 363.233 128.686 362.93 128.928C363.505 132.533 362.203 134.987 359.113 136.259C358.508 136.501 357.145 139.167 355.872 141.742C351.874 149.649 345.362 162.614 335.306 162.614ZM320.07 153.465C320.131 153.738 320.252 154.071 320.494 154.495C321.312 155.98 324.159 159.645 333.155 161.402C343.817 163.493 350.814 149.558 354.994 141.227C356.872 137.471 357.841 135.653 358.75 135.259C362.748 133.654 362.142 130.049 361.961 128.867L361.93 128.777C361.839 128.292 362.142 128.14 364.323 126.838C365.626 126.08 367.231 125.141 368.473 124.233C370.411 122.839 370.351 122.385 370.351 122.385C370.321 122.354 369.715 122.082 366.231 123.748C364.081 124.778 361.597 126.202 359.78 127.262C359.204 127.595 358.72 127.868 358.296 128.11C358.023 128.262 357.75 128.322 357.508 128.231C357.357 128.171 357.114 128.049 356.963 127.747C356.115 126.02 353.601 122.445 352.722 122.021C352.692 122.324 352.934 123.051 353.177 123.748C353.782 125.505 354.661 128.14 353.934 130.897C353.57 132.23 343.121 139.894 339.122 142.742C334.7 145.892 324.068 153.223 320.979 153.617C320.555 153.708 320.282 153.617 320.07 153.465Z" fill="#9E9E9E"/>
<path d="M228.02 191.816C228.02 191.816 253.615 112.842 264.368 105.663C275.09 98.4831 278.513 99.6645 287.297 99.7251C296.081 99.7857 296.202 122.627 293.415 130.412C289.871 140.288 271.334 201.571 271.334 201.571L228.02 191.816Z" fill="#CCCCCC"/>
<path d="M291.295 206.085C291.295 206.085 300.412 143.741 304.107 131.109C306.44 123.172 308.621 106.42 313.225 107.874C323.129 111.025 328.824 146.377 328.824 146.377L348.663 130.109L360.567 147.104C360.567 147.104 341.091 179.517 326.34 179.366C319.828 179.305 312.074 161.614 312.074 161.614L306.319 209.447L291.295 206.085Z" fill="#CCCCCC"/>
<path d="M266.882 135.441L265.125 211.204L287.297 211.507L288.508 130.2L266.882 135.441Z" fill="#CCCCCC"/>
<path d="M287.812 212.053L264.61 211.719L266.367 135.441C266.367 135.138 266.609 134.896 266.912 134.926C267.215 134.926 267.427 135.169 267.427 135.472L265.7 210.689L286.782 210.992L287.993 130.231C287.993 129.928 288.236 129.716 288.508 129.716C288.811 129.716 289.023 129.958 289.023 130.261L287.812 212.053Z" fill="#9E9E9E"/>
<path d="M311.922 159.16C311.892 159.16 311.892 159.16 311.862 159.16C311.559 159.13 311.377 158.857 311.407 158.554L314.406 135.198C314.436 134.895 314.709 134.714 315.012 134.744C315.315 134.774 315.496 135.047 315.466 135.35L312.467 158.706C312.407 158.948 312.195 159.16 311.922 159.16Z" fill="#9E9E9E"/>
<path d="M143.694 292.511H89.5663C82.2968 292.511 76.4207 286.634 76.4207 279.364V168.157C76.4207 160.887 82.2968 155.01 89.5663 155.01H132.487C139.756 155.01 145.632 160.887 145.632 168.157V268.791L156.809 279.364C156.84 286.634 150.933 292.511 143.694 292.511Z" fill="#CCCCCC"/>
<path d="M143.694 293.026H89.5664C82.0243 293.026 75.8755 286.876 75.8755 279.333V168.157C75.8755 160.614 82.0243 154.465 89.5664 154.465H132.487C140.029 154.465 146.178 160.614 146.178 168.157V268.579L157.355 279.151V279.394C157.355 286.906 151.236 293.026 143.694 293.026ZM89.5664 155.525C82.5998 155.525 76.9356 161.19 76.9356 168.157V279.363C76.9356 286.331 82.5998 291.996 89.5664 291.996H143.664C150.539 291.996 156.173 286.452 156.294 279.606L145.148 269.003V168.127C145.148 161.16 139.484 155.495 132.517 155.495H89.5664V155.525Z" fill="#9E9E9E"/>
<path d="M114.01 272.79C114.01 272.79 113.98 272.79 114.01 272.79L91.4443 273.183C94.443 236.589 85.5076 182.062 85.4167 181.516C85.3561 181.213 85.0835 181.032 84.8109 181.092C84.508 181.153 84.3263 181.425 84.3869 181.698C84.4777 182.243 93.4132 236.741 90.4145 273.183L85.5984 273.274C85.2955 273.274 85.0835 273.517 85.0835 273.82C85.0835 274.122 85.3258 274.335 85.5984 274.335L114.04 273.85C114.343 273.85 114.555 273.607 114.555 273.305C114.525 273.002 114.283 272.79 114.01 272.79Z" fill="#9E9E9E"/>
<path d="M127.58 360.761H122.552V298.721C125.732 298.085 128.125 295.54 128.125 292.511H113.798C113.798 295.54 116.191 298.054 119.372 298.721V360.761H114.343C109.376 360.761 105.317 364.79 105.317 369.789V372H136.606V369.789C136.606 364.79 132.547 360.761 127.58 360.761Z" fill="#9E9E9E"/>
<path d="M224.688 335.527L233.411 357.338H218.267L210.815 343.404L224.688 335.527Z" fill="white"/>
<path d="M234.26 357.914H217.933L210.028 343.192L224.991 334.679L234.26 357.914ZM218.63 356.733H232.533L224.385 336.345L211.573 343.616L218.63 356.733Z" fill="#9E9E9E"/>
<path d="M234.229 356.611C234.229 356.611 256.098 364.003 256.856 370.122H217.631V356.611H234.229Z" fill="white"/>
<path d="M175.437 345.464L173.68 357.52H159.353L160.868 344.403L175.437 345.464Z" fill="white"/>
<path d="M174.165 358.096H158.687L160.353 343.767L176.104 344.918L174.165 358.096ZM160.02 356.914H173.165L174.771 345.978L161.383 345.009L160.02 356.914Z" fill="#9E9E9E"/>
<path d="M174.498 356.793C174.498 356.793 196.367 364.185 197.125 370.304H157.9V356.793H174.498Z" fill="white"/>
<path d="M198.548 368.002V372.001H156.9V367.487L198.548 368.002Z" fill="#9E9E9E"/>
<path d="M216.419 367.577V372H258.067V367.305L216.419 367.577Z" fill="#9E9E9E"/>
<path d="M175.982 361.731C175.77 361.731 175.558 361.58 175.467 361.368C175.376 361.095 175.528 360.792 175.801 360.701L183.373 358.278C183.646 358.187 183.948 358.338 184.039 358.611C184.13 358.884 183.979 359.187 183.706 359.278L176.134 361.701C176.073 361.731 176.013 361.731 175.982 361.731Z" fill="#9E9E9E"/>
<path d="M179.738 364.155C179.526 364.155 179.314 364.003 179.223 363.791C179.133 363.519 179.284 363.216 179.557 363.125L187.129 360.701C187.402 360.61 187.705 360.762 187.795 361.034C187.886 361.307 187.735 361.61 187.462 361.701L179.89 364.124C179.86 364.155 179.799 364.155 179.738 364.155Z" fill="#9E9E9E"/>
<path d="M184.978 366.578C184.766 366.578 184.554 366.427 184.463 366.215C184.373 365.942 184.524 365.639 184.797 365.548L192.369 363.125C192.642 363.034 192.944 363.186 193.035 363.458C193.126 363.731 192.975 364.034 192.702 364.125L185.13 366.548C185.1 366.578 185.039 366.578 184.978 366.578Z" fill="#9E9E9E"/>
<path d="M234.623 360.762C234.411 360.762 234.199 360.61 234.108 360.398C234.017 360.125 234.169 359.823 234.441 359.732L242.014 357.308C242.286 357.217 242.589 357.369 242.68 357.641C242.771 357.914 242.619 358.217 242.347 358.308L234.774 360.731C234.744 360.731 234.683 360.762 234.623 360.762Z" fill="#9E9E9E"/>
<path d="M238.409 363.155C238.197 363.155 237.985 363.004 237.894 362.792C237.803 362.519 237.955 362.216 238.227 362.125L245.8 359.702C246.072 359.611 246.375 359.762 246.466 360.035C246.557 360.308 246.405 360.61 246.133 360.701L238.56 363.125C238.5 363.155 238.47 363.155 238.409 363.155Z" fill="#9E9E9E"/>
<path d="M243.65 365.579C243.437 365.579 243.225 365.427 243.135 365.215C243.044 364.942 243.195 364.639 243.468 364.549L251.04 362.125C251.313 362.034 251.616 362.186 251.707 362.458C251.797 362.731 251.646 363.034 251.373 363.125L243.801 365.548C243.74 365.579 243.71 365.579 243.65 365.579Z" fill="#9E9E9E"/>
<path d="M159.384 244.86C159.384 244.86 207.423 242.739 208.634 254.463C209.846 266.217 180.405 349.311 180.405 349.311L157.324 346.039C157.324 346.039 173.953 285.12 173.226 280.727C170.379 263.43 103.954 242.437 103.954 242.437L159.384 244.86Z" fill="#9E9E9E"/>
<path d="M95.2608 235.681C95.2608 235.681 89.4755 273.608 117.1 275.941C144.996 278.304 171.742 277.88 177.8 283.847C179.587 285.604 210.876 349.311 210.876 349.311L232.745 340.677C232.745 340.677 196.186 261.824 193.369 258.007C188.31 251.191 184.494 247.495 159.384 244.83C136.727 242.437 95.2608 235.681 95.2608 235.681Z" fill="#B3B3B3"/>
<path d="M161.171 134.078C161.171 134.078 156.143 148.891 157.051 150.8C157.96 152.739 164.745 157.313 164.745 157.313L144.299 189.181L118.069 181.396L122.218 155.465C122.218 155.465 136.576 148.619 137.757 146.862C139.392 144.438 142.633 130.322 142.633 130.322L161.171 134.078Z" fill="white"/>
<path d="M144.481 189.757L144.148 189.666L117.524 181.759L121.764 155.192L121.976 155.101C127.489 152.466 136.515 147.861 137.333 146.65C138.908 144.317 142.119 130.412 142.149 130.261C142.21 130.019 142.452 129.867 142.694 129.897C142.937 129.958 143.088 130.2 143.058 130.443C142.937 131.018 139.756 144.65 138.121 147.134C136.97 148.891 124.854 154.708 122.612 155.798L118.554 181.063L144.027 188.636L164.049 157.434C162.504 156.374 157.415 152.769 156.597 150.981C155.658 148.982 159.838 136.41 160.686 133.896C160.777 133.654 161.02 133.533 161.292 133.593C161.534 133.684 161.656 133.926 161.595 134.199C159.687 139.864 156.87 149.285 157.476 150.588C158.172 152.072 163.14 155.647 164.987 156.919L165.351 157.161L144.481 189.757Z" fill="#9E9E9E"/>
<path d="M163.2 103.24C166.471 104.27 174.407 106.724 173.075 112.297C171.53 118.659 168.38 126.596 166.653 130.776C165.957 132.412 164.109 133.351 162.261 132.957L141.664 128.595C139.786 128.201 138.514 126.535 138.726 124.748C139.453 118.689 141.089 105.906 142.27 104.179C146.359 98.2717 158.021 101.574 163.2 103.24Z" fill="#9E9E9E"/>
<path d="M142.21 133.048C141.361 131.745 141.967 127.383 143.027 122.476C143.058 122.324 142.997 122.203 142.906 122.082C141.725 121.052 140.18 119.022 140.816 116.629C141.361 114.539 142.876 115.326 143.997 116.266C144.209 116.447 144.512 116.326 144.572 116.084C146.117 110.237 147.692 105.178 147.692 105.178L172.166 110.358C172.166 110.358 170.833 115.569 169.167 121.385C169.107 121.658 164.654 135.411 163.745 136.562C163.261 137.198 162.504 137.622 161.565 137.925C161.565 137.925 159.717 138.804 150.812 136.895L142.21 133.048Z" fill="white"/>
<path d="M159.747 138.622C158.142 138.622 155.385 138.379 150.751 137.38C150.509 137.319 150.327 137.077 150.387 136.834C150.448 136.592 150.69 136.41 150.933 136.471C159.383 138.258 161.383 137.531 161.413 137.531L161.443 137.501C162.322 137.228 162.988 136.834 163.382 136.289C164.169 135.289 168.561 121.809 168.713 121.264C170.076 116.508 171.227 112.115 171.59 110.722L148.025 105.723C147.631 107.026 146.298 111.388 145.026 116.205C144.966 116.477 144.754 116.69 144.481 116.78C144.208 116.871 143.905 116.811 143.693 116.629C142.936 115.993 142.27 115.69 141.906 115.811C141.573 115.902 141.391 116.387 141.27 116.75C140.634 119.113 142.421 121.021 143.209 121.748C143.451 121.961 143.542 122.263 143.481 122.566C141.846 130.109 142.24 132.2 142.603 132.775C142.754 132.987 142.694 133.29 142.452 133.411C142.24 133.563 141.937 133.502 141.815 133.26C141.513 132.805 140.604 131.382 142.542 122.385C141.603 121.536 139.574 119.325 140.331 116.477C140.574 115.599 140.998 115.054 141.573 114.872C142.27 114.66 143.118 114.963 144.117 115.75C145.632 110.025 147.207 105.027 147.207 104.996L147.328 104.603L172.711 109.995L172.59 110.479C172.59 110.54 171.257 115.781 169.591 121.536C169.561 121.658 165.108 135.623 164.109 136.865C163.594 137.531 162.776 138.046 161.716 138.379C161.595 138.47 161.049 138.622 159.747 138.622Z" fill="#9E9E9E"/>
<path d="M145.087 104.3C145.087 104.3 144.875 98.12 149.025 98.8773C153.174 99.6043 153.871 95.5148 157.748 96.2418C161.625 96.9688 159.444 97.9988 163.412 99.2105C167.38 100.422 169.5 98.2714 170.439 101.483C171.378 104.694 174.559 104.088 175.861 106.299C177.133 108.511 176.558 110.964 174.528 111.661C172.499 112.358 175.437 114.236 173.741 115.902C172.045 117.568 165.351 116.993 164.381 114.327C163.412 111.661 162.897 109.843 160.413 109.571C157.93 109.298 154.84 110.389 153.174 109.813C151.508 109.238 149.327 107.299 148.389 107.693C147.45 108.117 146.389 109.601 145.481 109.419C144.572 109.238 141.937 106.087 145.087 104.3Z" fill="#9E9E9E"/>
<path d="M148.964 105.179C148.964 105.179 147.843 108.147 146.662 109.42C145.45 110.692 143.815 111.51 143.845 113.661C143.875 115.811 138.756 112.51 140.18 110.298C143.118 105.754 138.696 104.391 141.604 102.119C143.33 100.756 146.389 100.998 146.389 100.998L148.964 105.179Z" fill="#9E9E9E"/>
<path d="M148.964 105.179C148.964 105.179 147.843 108.147 146.662 109.42C145.45 110.692 143.815 111.51 143.845 113.661C143.875 115.811 138.756 112.51 140.18 110.298C143.118 105.754 138.696 104.391 141.604 102.119C143.33 100.756 146.389 100.998 146.389 100.998L148.964 105.179Z" fill="#9E9E9E"/>
<path d="M130.094 146.498C124.763 143.741 91.1412 166.976 81.6606 197.603C70.9986 231.985 110.072 222.322 110.072 222.322L104.045 183.971L94.2913 239.044L156.93 244.86L163.503 203.934C163.503 203.934 160.595 222.049 183.858 222.443C194.096 222.625 208.604 222.443 208.604 222.443L210.27 206.781L184.161 203.055C184.161 203.055 181.798 173.55 171.439 162.826C166.562 157.767 162.534 154.798 160.444 154.283C154.144 152.738 157.173 160.433 130.094 146.498Z" fill="white"/>
<path d="M167.411 216.051L179.829 214.749L183.858 215.809L184.433 217.293C184.433 217.293 177.8 216.899 173.892 218.081C169.985 219.262 166.986 218.899 166.986 218.899L166.774 217.99L167.411 216.051Z" fill="white"/>
<path d="M165.351 220.111C159.838 219.626 136.242 222.837 136.242 222.837L138.242 210.083C138.242 210.083 163.988 214.476 165.957 213.9C169.622 212.84 174.468 212.204 178.799 212.053C184.524 211.841 189.855 213.204 189.764 214.749C189.704 215.597 182.01 214.93 180.041 215.718C174.438 217.929 169.288 220.444 165.351 220.111Z" fill="white"/>
<path d="M135.455 223.594L137.666 209.356L138.302 209.478C148.146 211.144 164.321 213.688 165.714 213.325C169.197 212.325 174.044 211.628 178.708 211.447C183.646 211.265 188.431 212.204 189.855 213.658C190.309 214.112 190.37 214.537 190.37 214.839C190.309 215.869 188.886 215.9 185.433 215.96C183.494 215.991 181.101 216.021 180.253 216.384C179.375 216.748 178.466 217.111 177.618 217.475C173.075 219.353 168.773 221.14 165.32 220.838C159.959 220.383 136.576 223.534 136.333 223.564L135.455 223.594ZM138.756 210.811L137 222.08C141.331 221.504 160.413 219.05 165.411 219.474C168.561 219.747 172.711 218.02 177.103 216.203C177.981 215.839 178.86 215.476 179.769 215.112C180.829 214.688 183.161 214.658 185.402 214.597C186.584 214.567 188.128 214.537 188.886 214.446C187.765 213.446 183.524 212.507 178.769 212.689C174.195 212.87 169.47 213.567 166.108 214.537C164.2 215.082 144.239 211.75 138.756 210.811Z" fill="#9E9E9E"/>
<path d="M168.652 216.778L181.495 214.87L180.889 215.051C180.889 215.051 193.096 217.081 175.134 218.565C171.015 218.899 167.683 218.505 167.895 218.929L168.016 218.687L168.652 216.778Z" fill="white"/>
<path d="M170.379 220.05C170.076 220.05 169.803 219.807 169.743 219.504C169.682 219.141 169.925 218.838 170.288 218.777C171.772 218.565 173.105 218.262 174.286 217.99C175.74 217.657 176.982 217.354 178.073 217.354C179.405 217.323 183.313 217.293 184.009 216.808C184.009 216.808 184.009 216.778 183.979 216.778C183.676 216.384 181.132 215.415 178.587 215.385C175.68 215.354 173.075 216.354 173.044 216.354C172.711 216.475 172.348 216.324 172.227 215.99C172.105 215.657 172.257 215.294 172.59 215.173C172.711 215.142 175.407 214.112 178.497 214.112C178.527 214.112 178.557 214.112 178.587 214.112C181.041 214.143 184.464 215.051 185.1 216.172C185.403 216.748 185.281 217.172 185.13 217.445C184.615 218.323 183.04 218.596 178.042 218.656C177.103 218.656 175.922 218.929 174.529 219.262C173.317 219.535 171.954 219.868 170.409 220.08C170.44 220.05 170.409 220.05 170.379 220.05Z" fill="#9E9E9E"/>
<path d="M124.611 147.68L133.425 143.317L147.813 152.89L141.543 157.888L124.611 147.68Z" fill="white"/>
<path d="M165.109 156.646L160.959 149.952L147.813 152.89L151.236 159.373L165.109 156.646Z" fill="white"/>
<path d="M166.169 157.101L161.292 149.225L147.965 152.224L133.486 142.59L123.279 147.619L141.604 158.646L147.147 154.223C146.541 164.22 142.634 225.654 137.666 241.77C137.575 242.073 137.757 242.406 138.06 242.497C138.12 242.527 138.181 242.527 138.242 242.527C138.484 242.527 138.726 242.376 138.787 242.134C143.694 226.29 147.541 167.249 148.267 155.132L150.903 160.1L166.169 157.101ZM141.513 157.101L125.944 147.74L133.365 144.044L146.723 152.951L141.513 157.101ZM160.656 150.679L164.079 156.192L151.569 158.646L148.782 153.344L160.656 150.679Z" fill="#9E9E9E"/>
<path d="M103.348 199.814L147.298 207.691L142.179 222.837C142.179 222.837 111.738 223.716 105.226 222.837C93.0799 221.201 80.116 210.508 80.116 210.508L103.348 199.814Z" fill="white"/>
<path d="M142.452 222.625C142.391 222.625 142.331 222.625 142.27 222.595C141.967 222.504 141.786 222.14 141.907 221.838L146.541 208.175L106.165 201.783L117.645 182.426C117.827 182.153 118.19 182.063 118.463 182.214C118.735 182.396 118.826 182.759 118.675 183.032L108.104 200.875L148.146 207.236L143.058 222.262C142.937 222.474 142.694 222.625 142.452 222.625Z" fill="#9E9E9E"/>
<path d="M468.853 227.684L106.286 227.199C104.287 227.199 102.652 225.563 102.652 223.564V223.14C102.652 221.14 104.287 219.504 106.286 219.504L468.853 219.989C470.852 219.989 472.488 221.625 472.488 223.624V224.048C472.488 226.048 470.852 227.684 468.853 227.684Z" fill="white"/>
<path d="M468.853 228.138L106.286 227.653C104.045 227.653 102.197 225.805 102.197 223.563V223.139C102.197 220.898 104.045 219.05 106.286 219.05L468.853 219.535C471.094 219.535 472.942 221.382 472.942 223.624V224.048C472.942 226.32 471.125 228.138 468.853 228.138ZM106.286 219.959C104.53 219.959 103.106 221.382 103.106 223.139V223.563C103.106 225.32 104.53 226.744 106.286 226.744L468.853 227.229C470.61 227.229 472.033 225.805 472.033 224.048V223.624C472.033 221.867 470.61 220.443 468.853 220.443L106.286 219.959Z" fill="#9E9E9E"/>
<path d="M93.9282 371.546H86.2346L121.704 227.259H129.397L93.9282 371.546Z" fill="white"/>
<path d="M94.2614 371.969H85.6895L85.8106 371.454L121.371 226.865H129.943L129.821 227.38L94.2614 371.969ZM86.7799 371.091H93.595L128.852 227.683H122.037L86.7799 371.091Z" fill="#9E9E9E"/>
<path d="M467.581 371.545H475.274L454.041 227.683H446.348L467.581 371.545Z" fill="white"/>
<path d="M475.789 372H467.187L467.127 371.606L445.833 227.259H454.435L454.496 227.653L475.789 372ZM467.975 371.091H474.76L453.678 228.168H446.893L467.975 371.091Z" fill="#9E9E9E"/>
<path d="M411.692 39.8864C414.654 23.9815 404.163 8.68655 388.26 5.7243C372.357 2.76204 357.064 13.2542 354.102 29.1591C351.14 45.064 361.631 60.3589 377.534 63.3212C393.437 66.2834 408.73 55.7913 411.692 39.8864Z" fill="#CCCCCC"/>
<path d="M382.921 35.0492L365.414 26.9609C365.171 26.87 365.08 26.5974 365.202 26.3551C365.292 26.1127 365.565 26.0218 365.807 26.143L382.86 34.0192L402.609 21.2355C402.821 21.084 403.094 21.1446 403.245 21.3567C403.397 21.5687 403.336 21.8414 403.124 21.9928L382.921 35.0492Z" fill="#9E9E9E"/>
<path d="M269.093 172.671L258.521 215.476H196.791L209.271 172.671H269.093Z" fill="white"/>
<path d="M258.855 215.93H196.155L208.907 172.217H269.638L269.486 172.792L258.855 215.93ZM197.397 215.021H258.158L268.517 173.126H209.634L197.397 215.021Z" fill="#9E9E9E"/>
<path d="M178.277 219.5H258.454V215.441H178.277V219.5Z" fill="#CCCCCC"/>
<path d="M258.915 219.959H177.83V214.991H258.915V219.959ZM178.739 219.05H258.007V215.9H178.739V219.05Z" fill="#9E9E9E"/>
<path d="M232.563 202.207C232.442 202.207 232.321 202.207 232.169 202.177C230.716 202.055 229.443 201.268 228.535 199.935C227.656 198.632 227.232 196.966 227.384 195.27C227.687 191.695 230.322 189.029 233.29 189.272C236.228 189.514 238.379 192.634 238.076 196.178C237.773 199.571 235.35 202.207 232.563 202.207ZM232.896 190.15C230.564 190.15 228.535 192.392 228.292 195.33C228.171 196.845 228.504 198.269 229.292 199.39C230.049 200.48 231.109 201.147 232.26 201.237C234.714 201.45 236.925 199.117 237.167 196.057C237.44 192.998 235.653 190.332 233.199 190.12C233.108 190.15 233.018 190.15 232.896 190.15Z" fill="#9E9E9E"/>
<path d="M360.81 344.736L362.354 359.761H375.5L377.499 343.676L360.81 344.736Z" fill="white"/>
<path d="M375.924 360.246H361.9L360.264 344.282L378.044 343.161L375.924 360.246ZM362.809 359.247H375.076L376.954 344.191L361.355 345.191L362.809 359.247Z" fill="#9E9E9E"/>
<path d="M361.628 359.186C361.628 359.186 342.636 365.214 341.97 370.182H376.015V359.186H361.628Z" fill="white"/>
<path d="M403.245 343.101L400.125 359.459H413.241L415.603 343.616L403.245 343.101Z" fill="white"/>
<path d="M413.665 359.943H399.52L402.852 342.616L416.179 343.161L413.665 359.943ZM400.701 358.944H412.817L415.028 344.07L403.639 343.615L400.701 358.944Z" fill="#9E9E9E"/>
<path d="M399.398 358.883C399.398 358.883 380.407 364.912 379.74 369.88H413.786V358.883H399.398Z" fill="white"/>
<path d="M378.135 368.577V372H414.331V368.183L378.135 368.577Z" fill="#9E9E9E"/>
<path d="M377.105 368.032V372H340.94V367.79L377.105 368.032Z" fill="#9E9E9E"/>
<path d="M406.82 368.638C406.577 368.638 406.365 368.426 406.365 368.183V361.579C406.365 361.337 406.577 361.125 406.82 361.125C407.062 361.125 407.274 361.337 407.274 361.579V368.183C407.274 368.426 407.062 368.638 406.82 368.638Z" fill="#9E9E9E"/>
<path d="M369.048 368.941C368.806 368.941 368.594 368.729 368.594 368.487V361.883C368.594 361.64 368.806 361.428 369.048 361.428C369.291 361.428 369.503 361.64 369.503 361.883V368.487C369.503 368.729 369.321 368.941 369.048 368.941Z" fill="#9E9E9E"/>
<path d="M421.45 238.71L389.252 269.034L382.376 349.856L358.478 350.462C358.478 350.462 360.113 267.065 362.688 259.249C365.414 250.949 405.487 200.844 405.487 200.844L460.826 194.058C460.826 194.058 467.732 216.263 463.31 227.017C458.888 237.741 418.33 351.583 418.33 351.583L391.463 350.189L421.45 238.71Z" fill="#9E9E9E"/>
<path d="M422.298 128.898L427.356 125.111L432.687 128.262L430.355 132.503L439.896 189.272L433.141 204.782L425.084 190.393L425.599 132.745L422.298 128.898Z" fill="white"/>
<path d="M426.538 73.6125C429.628 73.4005 437.109 72.7946 438.048 78.2171C439.139 84.3969 439.472 92.4852 439.593 96.7868C439.623 98.4832 438.442 99.9373 436.776 100.24L418.118 103.512C416.421 103.815 414.756 102.785 414.271 101.119C412.605 95.5145 409.667 83.4578 410.03 81.5191C411.242 74.8546 421.662 73.9458 426.538 73.6125Z" fill="#9E9E9E"/>
<path d="M436.685 101.786C436.685 101.786 438.684 116.326 440.259 117.75C441.834 119.174 449.164 121.749 449.164 121.749L428.901 140.106L412.756 128.413C412.756 128.413 419.511 123.93 419.874 121.9C420.359 119.083 417.754 105.118 417.754 105.118L436.685 101.786Z" fill="white"/>
<path d="M428.901 140.682L411.938 128.383L412.484 128.019C415.028 126.323 419.178 123.142 419.42 121.809C419.905 119.113 417.3 105.33 417.3 105.178C417.239 104.936 417.421 104.693 417.663 104.633C417.906 104.572 418.148 104.754 418.208 104.996C418.33 105.572 420.844 119.113 420.329 121.961C419.995 123.839 415.27 127.232 413.544 128.413L428.87 139.5L448.316 121.9C446.408 121.203 441.289 119.265 439.956 118.053C438.351 116.599 436.594 104.269 436.261 101.816C436.231 101.573 436.412 101.331 436.655 101.301C436.897 101.27 437.139 101.452 437.17 101.694C437.927 107.238 439.532 116.417 440.592 117.386C441.834 118.507 445.439 121.294 447.468 122.021L448.589 122.9L428.901 140.682Z" fill="#9E9E9E"/>
<path d="M430.021 107.935C424.842 109.48 418.057 109.631 415.907 108.117C414.634 107.238 413.453 103.058 412.484 98.2108C412.454 98.0594 409.879 80.7923 409.879 80.7923L433.535 76.6421C433.535 76.6421 434.413 81.8525 435.201 87.7597C435.231 88.0323 435.534 88.1535 435.746 87.9717C436.867 87.0326 438.503 86.1239 438.927 88.305C439.472 91.0314 437.321 93.1519 436.17 93.9395C436.049 94.0304 435.989 94.1515 435.989 94.303C436.443 98.4835 436.655 102.119 436.322 103.482C436.14 104.209 435.625 104.906 434.928 105.511L430.021 107.935Z" fill="white"/>
<path d="M421.328 109.631C418.905 109.631 416.754 109.298 415.634 108.48C414.422 107.632 413.241 104.3 412.029 98.3016C411.999 98.1501 410.03 84.912 409.394 80.883L409.333 80.4286L433.898 76.127L433.959 76.5814C433.959 76.6419 434.807 81.7615 435.595 87.4869C436.655 86.6387 437.533 86.3357 438.2 86.5781C438.775 86.7901 439.169 87.3354 439.32 88.2139C439.835 90.8191 438.078 93.1214 436.412 94.3029C436.958 99.3012 437.049 102.331 436.715 103.603C436.503 104.421 435.988 105.178 435.171 105.845C434.989 105.996 434.686 105.996 434.535 105.784C434.383 105.602 434.383 105.299 434.595 105.148C435.261 104.572 435.686 103.966 435.837 103.361C436.049 102.573 436.14 100.361 435.504 94.3634C435.474 94.0605 435.595 93.7576 435.867 93.5758C436.2 93.3638 439.017 91.2735 438.442 88.3957C438.381 88.0322 438.2 87.5475 437.897 87.4263C437.503 87.3051 436.837 87.6081 435.988 88.3048C435.776 88.4866 435.474 88.5471 435.201 88.426C434.928 88.3351 434.747 88.0928 434.716 87.7898C434.05 82.9732 433.353 78.5504 433.141 77.1569L410.363 81.1556C411.272 87.1537 412.877 97.8774 412.908 98.1198C414.392 105.542 415.573 107.329 416.118 107.723C418.087 109.116 424.751 108.995 429.84 107.48C430.082 107.42 430.324 107.541 430.415 107.783C430.476 108.026 430.355 108.268 430.112 108.359C427.507 109.177 424.206 109.631 421.328 109.631Z" fill="#9E9E9E"/>
<path d="M418.269 88.7897C418.269 88.7897 416.391 88.1535 413.816 89.8196L418.269 88.7897Z" fill="white"/>
<path d="M433.777 77.9142C433.777 77.9142 416.997 86.1237 407.94 81.3071C398.853 76.4905 411.514 74.0064 419.269 73.4611C427.053 72.8856 438.018 72.5523 433.777 77.9142Z" fill="#9E9E9E"/>
<path d="M375.015 148.649C381.831 149.134 413.271 124.384 417.088 124.475C417.421 124.475 427.144 125.444 427.356 125.323C429.567 123.93 431.263 123.869 432.535 124.869C437.503 123.354 444.318 120.9 444.651 120.961C458.736 123.536 474.547 162.766 475.425 165.462C478.666 175.156 466.581 180.215 466.581 180.215C466.46 181.305 470.367 208.811 470.367 208.811L426.023 210.265L396.37 211.598C396.37 211.598 399.732 163.735 398.793 149.83C398.338 142.984 387.434 178.821 377.651 164.644C365.535 147.074 369.927 148.286 375.015 148.649Z" fill="white"/>
<path d="M395.885 212.052L395.916 211.537C395.946 211.053 399.247 163.523 398.339 149.83C398.339 149.709 398.308 149.618 398.308 149.558C397.763 150.163 396.733 152.072 395.794 153.799C392.705 159.524 388.01 168.158 382.891 168.43C380.862 168.521 378.984 167.34 377.287 164.886C369.291 153.284 368.928 150.436 369.715 149.073C370.442 147.831 372.259 147.952 374.349 148.134C374.592 148.164 374.834 148.164 375.076 148.194C375.137 148.194 375.198 148.194 375.258 148.194C379.287 148.194 391.524 139.985 401.368 133.351C410 127.565 415.392 123.99 417.058 123.99C417.058 123.99 417.058 123.99 417.088 123.99C417.179 123.99 417.694 124.051 419.178 124.172C421.541 124.384 426.417 124.838 427.174 124.838C429.325 123.505 431.142 123.324 432.596 124.323C434.898 123.596 437.594 122.718 439.805 121.961C444.106 120.506 444.47 120.416 444.712 120.476C450.74 121.567 457.706 129.14 465.37 142.893C471.397 153.708 475.486 164.159 475.85 165.249C478.909 174.368 468.883 179.548 467.036 180.426C467.187 182.729 469.338 198.269 470.822 208.66L470.882 209.175L426.023 210.659L395.885 212.052ZM398.43 148.467C398.49 148.467 398.521 148.467 398.581 148.497C399.187 148.619 399.247 149.436 399.278 149.8C400.156 162.796 397.248 205.873 396.915 211.113L426.054 209.811L469.883 208.357C469.247 203.843 466.066 181.214 466.157 180.154L466.187 179.881L466.43 179.76C466.914 179.548 478.091 174.762 475.002 165.583C474.638 164.553 470.489 153.98 464.582 143.378C457.191 130.079 450.285 122.506 444.621 121.415C444.228 121.506 442.138 122.203 440.108 122.869C437.836 123.627 435.019 124.566 432.657 125.293L432.415 125.353L432.233 125.202C431.052 124.293 429.537 124.445 427.568 125.687C427.356 125.808 427.265 125.868 419.087 125.111C418.057 125.02 417.149 124.929 417.058 124.929C415.604 124.929 408.637 129.594 401.883 134.138C391.221 141.318 379.105 149.436 374.985 149.134C374.743 149.103 374.501 149.103 374.259 149.073C372.532 148.921 370.927 148.8 370.503 149.558C369.685 150.981 372.138 155.828 378.045 164.371C379.559 166.552 381.165 167.612 382.831 167.521C387.435 167.279 392.16 158.585 394.977 153.375C396.915 149.739 397.672 148.467 398.43 148.467Z" fill="#9E9E9E"/>
<path d="M427.326 124.929L425.236 205.57L427.326 124.929Z" fill="white"/>
<path d="M425.266 205.993C425.266 205.993 425.236 205.993 425.266 205.993C425.024 205.993 424.812 205.781 424.842 205.539L426.932 124.899C426.932 124.656 427.144 124.475 427.386 124.475C427.629 124.475 427.81 124.687 427.81 124.929L425.72 205.569C425.69 205.812 425.478 205.993 425.266 205.993Z" fill="#9E9E9E"/>
<path d="M422.328 129.08L427.356 125.293L433.081 127.898L429.506 132.957L433.111 183.516L426.387 199.027L418.33 184.637L425.599 132.927L422.328 129.08Z" fill="white"/>
<path d="M442.864 147.013C442.864 147.013 449.467 161.584 447.953 164.189C446.438 166.794 415.331 169.581 415.331 169.581L417.027 182.516C417.027 182.516 447.256 185.636 463.885 179.79L442.864 147.013Z" fill="white"/>
<path d="M435.08 183.758C425.115 183.758 417.118 182.971 416.967 182.941L416.634 182.91L414.846 169.187L415.301 169.157C415.392 169.157 423.176 168.46 431.021 167.43C445.621 165.552 447.377 164.31 447.589 163.977C448.619 162.22 445.015 152.769 442.501 147.195C442.41 146.983 442.501 146.71 442.713 146.619C442.925 146.528 443.198 146.619 443.288 146.831C443.985 148.346 449.922 161.705 448.347 164.401C448.044 164.886 447.287 166.219 431.142 168.279C424.327 169.157 417.603 169.793 415.816 169.975L417.421 182.123C420.783 182.426 448.347 184.788 463.734 179.396C463.946 179.305 464.218 179.427 464.279 179.669C464.37 179.881 464.249 180.154 464.006 180.214C455.949 183.031 444.621 183.758 435.08 183.758Z" fill="#9E9E9E"/>
<path d="M427.326 124.929L436.988 129.928L448.71 121.294L442.38 118.78L427.326 124.929Z" fill="white"/>
<path d="M427.326 124.929L420.904 130.836L411.787 127.08L415.18 123.263L427.326 124.929Z" fill="white"/>
<path d="M449.619 121.173L442.349 118.295L427.235 124.475L414.998 122.93L410.575 127.595L420.45 131.412L427.326 125.475L436.988 130.504L449.619 121.173ZM420.298 130.322L412.241 127.202L415.391 123.869L426.175 125.233L420.298 130.322ZM428.416 124.96L442.38 119.265L447.771 121.416L436.958 129.413L428.416 124.96Z" fill="#9E9E9E"/>
<path d="M419.238 140.924L419.42 143.681L409.243 144.408L409.061 141.651L419.238 140.924Z" fill="white"/>
<path d="M408.819 144.893L408.546 141.227L419.632 140.439L419.905 144.105L408.819 144.893ZM409.546 142.075L409.667 143.923L418.935 143.257L418.814 141.409L409.546 142.075Z" fill="#9E9E9E"/>
<path d="M350.996 131.927L361.567 174.701H423.297L410.788 131.927H350.996Z" fill="white"/>
<path d="M423.903 175.155H361.204L361.113 174.822L350.42 131.473H411.151L411.242 131.806L423.903 175.155ZM361.93 174.247H422.691L410.454 132.381H351.571L361.93 174.247Z" fill="#9E9E9E"/>
<path d="M441.804 174.701H361.627V178.76H441.804V174.701Z" fill="#CCCCCC"/>
<path d="M442.259 179.215H361.173V174.247H442.259V179.215ZM362.082 178.306H441.35V175.155H362.082V178.306Z" fill="#9E9E9E"/>
<path d="M387.525 161.433C384.738 161.433 382.315 158.827 382.012 155.404C381.709 151.83 383.86 148.74 386.798 148.497C388.252 148.376 389.645 148.952 390.766 150.103C391.856 151.224 392.553 152.799 392.674 154.495C392.826 156.192 392.402 157.858 391.523 159.161C390.615 160.493 389.312 161.281 387.888 161.402C387.767 161.432 387.646 161.433 387.525 161.433ZM387.162 149.406C387.071 149.406 386.95 149.406 386.859 149.406C384.405 149.618 382.648 152.284 382.891 155.344C383.163 158.403 385.344 160.705 387.798 160.524C388.979 160.433 390.009 159.766 390.766 158.676C391.523 157.555 391.887 156.101 391.766 154.617C391.644 153.102 391.039 151.739 390.1 150.769C389.252 149.861 388.222 149.406 387.162 149.406Z" fill="#9E9E9E"/>
<path d="M374.258 179.729C374.258 179.729 373.137 172.217 371.502 171.853C369.866 171.459 370.411 178.518 370.23 178.578C369.957 178.639 370.109 170.308 368.594 169.823C367.08 169.339 367.292 177.548 367.14 177.518C366.928 177.488 367.382 172.247 365.959 171.126C364.565 170.005 365.171 176.821 364.868 176.7C364.687 176.639 365.323 172.126 363.899 171.883C363.021 171.732 361.991 177.003 361.991 177.003C361.991 177.003 361.415 180.365 365.08 181.153C366.05 181.335 373.077 183.061 374.258 179.729Z" fill="white"/>
<path d="M369.836 182.183C368.594 182.183 367.049 182.001 365.141 181.577L364.99 181.547C360.961 180.699 361.567 176.973 361.567 176.912C362.688 171.217 363.657 171.399 363.99 171.429C364.293 171.49 364.535 171.641 364.717 171.883C364.838 171.156 365.05 170.763 365.383 170.581C365.535 170.52 365.838 170.429 366.231 170.732C366.625 171.035 366.868 171.55 367.08 172.217C367.261 170.763 367.534 169.824 368.018 169.46C368.231 169.309 368.503 169.278 368.745 169.339C369.503 169.581 369.896 170.763 370.169 172.853C370.32 172.247 370.533 171.793 370.835 171.55C371.078 171.368 371.35 171.308 371.623 171.368C373.38 171.793 374.44 177.791 374.712 179.608L374.743 179.699L374.712 179.79C374.258 181.032 373.047 182.183 369.836 182.183ZM363.899 172.308C363.536 172.671 362.839 174.792 362.385 177.094C362.354 177.215 361.93 180.063 365.141 180.729L365.292 180.759C370.048 181.789 373.077 181.426 373.774 179.669C373.228 176.215 372.168 172.429 371.35 172.247C371.32 172.247 371.32 172.247 371.29 172.277C370.654 172.792 370.654 176.367 370.654 177.518C370.654 178.73 370.654 178.881 370.29 178.972L370.108 179.002L369.957 178.881C369.745 178.73 369.715 178.548 369.624 176.852C369.382 172.641 368.988 170.399 368.473 170.217C368.17 170.399 367.776 171.641 367.625 176.397C367.594 177.669 367.594 177.7 367.413 177.851L367.261 177.972L367.08 177.942C366.655 177.881 366.655 177.609 366.625 176.458C366.595 175.155 366.534 172.156 365.716 171.459C365.414 172.005 365.414 174.367 365.414 175.276C365.414 176.67 365.414 176.882 365.141 177.064L364.959 177.185L364.747 177.094C364.414 176.973 364.414 176.73 364.444 175.852C364.505 173.671 364.323 172.489 363.899 172.308Z" fill="#9E9E9E"/>
<path d="M469.307 301.175L481.726 280.878L503.534 291.027L501.081 307.536L469.307 301.175Z" fill="white"/>
<path d="M501.444 308.082L468.58 301.508L481.544 280.303L504.019 290.754L501.444 308.082ZM470.034 300.872L500.687 307.021L503.019 291.329L481.877 281.484L470.034 300.872Z" fill="#9E9E9E"/>
<path d="M442.531 301.508L446.741 288.815L476.304 297.994L470.488 309.505L442.531 301.508Z" fill="white"/>
<path d="M470.7 310.02L441.925 301.811L446.438 288.239L476.97 297.721L470.7 310.02ZM443.107 301.205L470.246 308.96L475.668 298.266L447.014 289.36L443.107 301.205Z" fill="#9E9E9E"/>
<path d="M438.775 299.388H506.23L498.143 372H446.438L438.775 299.388Z" fill="#B3B3B3"/>
</g>
<defs>
<clipPath id="clip0">
<rect width="547" height="372" fill="white"/>
</clipPath>
</defs>
</svg>
