<svg width="80" height="80" viewBox="0 0 80 80" fill="none" xmlns="http://www.w3.org/2000/svg">
<path d="M74.7428 11.1997C74.6286 10.1712 73.8286 9.37118 72.8 9.02832L40.6857 0.114035C40.2286 -0.000251116 39.7714 -0.000251116 39.3143 0.114035L7.19998 9.02832C6.17141 9.25689 5.4857 10.1712 5.25713 11.1997C5.02855 12.5712 0.799982 44.2283 11.7714 59.9997C22.6286 75.7712 38.7428 79.7712 39.4286 79.8855C39.6571 79.8855 39.8857 79.9997 40 79.9997C40.1143 79.9997 40.4571 79.9998 40.5714 79.8855C41.2571 79.7712 57.3714 75.6569 68.2286 59.9997C79.2 44.2283 74.9714 12.5712 74.7428 11.1997Z" fill="#ED3A4D"/>
<path d="M66.6284 17.9428C66.5142 17.1428 65.9427 16.5714 65.1427 16.2285L40.457 9.37136C40.1142 9.25707 39.7713 9.25707 39.4284 9.37136L14.7427 16.2285C13.9427 16.4571 13.3713 17.1428 13.257 17.9428C13.0284 18.9714 9.82844 43.3142 18.2856 55.4285C26.6284 67.4285 39.0856 70.5142 39.5427 70.6285C39.7713 70.6285 39.8856 70.7428 39.9999 70.7428C40.1142 70.7428 40.3427 70.7428 40.457 70.6285C40.9142 70.5142 53.3713 67.4285 61.7142 55.3142C70.057 43.1999 66.857 18.9714 66.6284 17.9428Z" fill="#ED3A4D" stroke="white" stroke-width="3" stroke-miterlimit="10"/>
</svg>
