<svg width="31" height="30" viewBox="0 0 31 30" fill="none" xmlns="http://www.w3.org/2000/svg">
<path d="M30.6695 7.56566C30.4224 5.641 29.6812 3.83662 28.1986 2.39313C26.5926 0.949631 24.6159 0.227883 22.5157 0.107592C18.9329 -0.0126995 10.2849 -0.132991 7.19637 0.348175C3.73717 0.82934 1.5134 2.87429 0.525057 6.12216C-0.2162 8.64828 -0.0926571 20.4368 0.401514 22.963C1.01923 26.4514 3.11946 28.6166 6.57865 29.579C9.04951 30.1804 21.0332 30.0601 23.6276 29.6993C27.2103 29.0978 29.4341 27.0529 30.4224 23.6847C31.1637 21.0383 30.9166 9.85119 30.6695 7.56566ZM27.828 22.6021C27.4574 25.2485 25.6042 26.8123 22.8863 27.1732C20.4154 27.4137 9.2966 27.534 6.94928 26.9326C4.72551 26.3311 3.49008 24.8876 3.11946 22.7224C2.74883 20.6774 2.62528 10.3324 3.11946 7.56566C3.49008 4.91925 5.34323 3.35546 8.06117 2.99459C10.7791 2.754 20.6625 2.63371 23.2569 3.11488C25.9749 3.47575 27.5809 5.28012 27.9516 7.92653C28.1986 10.2121 28.1986 19.9557 27.828 22.6021Z" fill="#1E1E1E"/>
<path d="M19.3036 9.37081H21.5273V5.64178C21.1567 5.64178 19.7978 5.52148 18.3152 5.52148C15.1031 5.52148 13.0029 7.44615 13.0029 11.0549V14.3028H9.42017V18.513H12.8794V28.9783H17.2034V18.513H20.539L21.0332 14.3028H17.2034V11.4158C17.2034 10.2128 17.574 9.37081 19.3036 9.37081Z" fill="#1E1E1E"/>
</svg>
