<svg width="32" height="30" viewBox="0 0 32 30" fill="none" xmlns="http://www.w3.org/2000/svg">
<path d="M31.4993 7.56566C31.2522 5.641 30.5109 3.83662 29.0284 2.39313C27.4224 0.949631 25.4457 0.227883 23.3455 0.107592C19.7627 -0.0126995 11.1147 -0.132991 8.02619 0.348175C4.567 0.82934 2.34323 2.87429 1.35489 6.12216C0.613635 8.64828 0.737177 20.4368 1.23135 22.963C1.84906 26.4514 3.94928 28.6166 7.40847 29.579C9.87932 30.1804 21.8629 30.0601 24.4573 29.6993C28.0401 29.0978 30.2638 27.0529 31.2522 23.6847C31.9934 21.0383 31.7463 9.85119 31.4993 7.56566ZM28.6578 22.6021C28.2872 25.2485 26.434 26.8123 23.7161 27.1732C21.2452 27.4137 10.1264 27.534 7.7791 26.9326C5.55534 26.3311 4.31991 24.8876 3.94928 22.7224C3.57866 20.6774 3.45511 10.3324 3.94928 7.56566C4.31991 4.91925 6.17305 3.35546 8.89098 2.99459C11.6089 2.754 21.4923 2.63371 24.0867 3.11488C26.8046 3.47575 28.4107 5.28012 28.7813 7.92653C29.0284 10.2121 29.0284 19.9557 28.6578 22.6021ZM16.3035 7.32507C11.9795 7.32507 8.39681 10.8135 8.39681 15.0237C8.39681 19.2339 11.9795 22.7224 16.3035 22.7224C20.6275 22.7224 24.2103 19.2339 24.2103 15.0237C24.2103 10.8135 20.6275 7.32507 16.3035 7.32507ZM16.3035 19.9557C13.4621 19.9557 11.2383 17.6701 11.2383 14.9034C11.2383 12.1367 13.5856 9.97149 16.4271 9.97149C19.2686 9.97149 21.4923 12.257 21.4923 15.0237C21.3688 17.7904 19.145 19.9557 16.3035 19.9557ZM26.434 6.9642C26.434 7.92653 25.5692 8.76857 24.5809 8.76857C23.5925 8.76857 22.7277 7.92653 22.7277 6.9642C22.7277 6.00187 23.5925 5.15983 24.5809 5.15983C25.5692 5.15983 26.434 6.00187 26.434 6.9642Z" fill="#1E1E1E"/>
</svg>
