<svg width="175" height="63" viewBox="0 0 175 63" fill="none" xmlns="http://www.w3.org/2000/svg">
<path d="M0 53.3574H1.17483L3.12455 59.2473L5.09927 53.3325H5.99914L7.99886 59.2473L9.94858 53.3574H11.0984L8.49879 60.7384H7.54892L5.5742 54.9479L3.57449 60.7384H2.59963L0 53.3574Z" fill="white"/>
<path d="M16.5227 50.5491H17.7725V51.742H16.5227V50.5491ZM16.5727 53.3574H17.6725V60.6887H16.5727V53.3574Z" fill="white"/>
<path d="M23.9214 53.3576H25.0212V54.625C25.4962 53.8297 26.2711 53.1836 27.5459 53.1836C29.3206 53.1836 30.3705 54.3765 30.3705 56.1161V60.6641H29.2706V56.4144C29.2706 55.0475 28.5207 54.2025 27.2209 54.2025C25.9461 54.2025 25.0212 55.1221 25.0212 56.4889V60.6889H23.9214V53.3576Z" fill="white"/>
<path d="M36.095 57.0107C36.095 54.6249 37.8447 53.2083 39.6195 53.2083C40.9943 53.2083 41.8691 53.9539 42.4441 54.774V50.3503H43.5439V60.6888H42.4441V59.2225C41.8442 60.0924 40.9693 60.8628 39.6195 60.8628C37.8447 60.8379 36.095 59.4462 36.095 57.0107ZM42.4691 57.0107C42.4691 55.3208 41.1692 54.1776 39.7944 54.1776C38.3696 54.1776 37.1948 55.2213 37.1948 57.0355C37.1948 58.7752 38.3946 59.8687 39.7944 59.8687C41.1692 59.8687 42.4691 58.7255 42.4691 57.0107Z" fill="white"/>
<path d="M49.3181 57.0355C49.3181 54.9727 50.9429 53.2083 53.1676 53.2083C55.3672 53.2083 56.992 54.9479 56.992 57.0355C56.992 59.0982 55.3422 60.8627 53.1176 60.8627C50.9429 60.8627 49.3181 59.123 49.3181 57.0355ZM55.8922 57.0355C55.8922 55.4698 54.7173 54.1775 53.1426 54.1775C51.5428 54.1775 50.443 55.4698 50.443 57.0355C50.443 58.6011 51.6178 59.8935 53.1676 59.8935C54.7673 59.8686 55.8922 58.6011 55.8922 57.0355Z" fill="white"/>
<path d="M61.7661 53.3574H62.9409L64.8907 59.2473L66.8654 53.3325H67.7903L69.79 59.2473L71.7397 53.3574H72.8895L70.2899 60.7384H69.34L67.3653 54.9479L65.3656 60.7384H64.3907L61.7661 53.3574Z" fill="white"/>
<path d="M77.5889 59.7444L78.1388 58.974C78.9387 59.5705 79.8136 59.9184 80.6884 59.9184C81.5633 59.9184 82.2132 59.4711 82.2132 58.7255C82.2132 57.98 81.3383 57.7066 80.3635 57.4332C79.2136 57.1101 77.9138 56.7125 77.9138 55.3456C77.9138 54.0782 78.9637 53.2581 80.4135 53.2581C81.3133 53.2581 82.3132 53.5811 83.0631 54.0782L82.5632 54.8983C81.8883 54.451 81.0884 54.1776 80.3885 54.1776C79.5136 54.1776 78.9637 54.6249 78.9637 55.2711C78.9637 55.9669 79.8885 56.2403 80.8634 56.5385C82.0132 56.8865 83.2381 57.3089 83.2381 58.6758C83.2381 60.0675 82.0882 60.8628 80.6134 60.8628C79.5886 60.8379 78.4138 60.4155 77.5889 59.7444Z" fill="white"/>
<path d="M96.9861 59.7444L97.536 58.974C98.3359 59.5705 99.2108 59.9184 100.086 59.9184C100.961 59.9184 101.61 59.4711 101.61 58.7255C101.61 57.98 100.736 57.7066 99.7607 57.4332C98.6109 57.1101 97.311 56.7125 97.311 55.3456C97.311 54.0782 98.3609 53.2581 99.8107 53.2581C100.711 53.2581 101.71 53.5811 102.46 54.0782L101.96 54.8983C101.285 54.451 100.486 54.1776 99.7857 54.1776C98.9108 54.1776 98.3609 54.6249 98.3609 55.2711C98.3609 55.9669 99.2858 56.2403 100.261 56.5385C101.41 56.8865 102.635 57.3089 102.635 58.6758C102.635 60.0675 101.485 60.8628 100.011 60.8628C98.9858 60.8379 97.811 60.4155 96.9861 59.7444Z" fill="white"/>
<path d="M107.985 62.6272L108.36 61.7574C108.71 61.9314 109.034 62.0308 109.509 62.0308C110.159 62.0308 110.584 61.6829 111.009 60.6639L107.66 53.3574H108.859L111.534 59.471L113.909 53.3574H115.084L111.984 60.9373C111.359 62.4533 110.634 63 109.534 63C108.934 63 108.485 62.8758 107.985 62.6272Z" fill="white"/>
<path d="M119.758 59.7444L120.308 58.974C121.108 59.5705 121.982 59.9184 122.857 59.9184C123.732 59.9184 124.382 59.4711 124.382 58.7255C124.382 57.98 123.507 57.7066 122.532 57.4332C121.383 57.1101 120.083 56.7125 120.083 55.3456C120.083 54.0782 121.133 53.2581 122.582 53.2581C123.482 53.2581 124.482 53.5811 125.232 54.0782L124.732 54.8983C124.057 54.451 123.257 54.1776 122.557 54.1776C121.683 54.1776 121.133 54.6249 121.133 55.2711C121.133 55.9669 122.057 56.2403 123.032 56.5385C124.182 56.8865 125.407 57.3089 125.407 58.6758C125.407 60.0675 124.257 60.8628 122.782 60.8628C121.733 60.8379 120.583 60.4155 119.758 59.7444Z" fill="white"/>
<path d="M131.606 58.7505V54.3268H130.581V53.3576H131.606V51.1458H132.706V53.3576H135.056V54.3268H132.706V58.6014C132.706 59.496 133.206 59.8191 133.956 59.8191C134.331 59.8191 134.631 59.7446 135.031 59.5706V60.515C134.656 60.7138 134.231 60.8381 133.706 60.8381C132.506 60.8132 131.606 60.2416 131.606 58.7505Z" fill="white"/>
<path d="M143.604 59.9183C144.629 59.9183 145.329 59.4958 145.929 58.8745L146.604 59.4958C145.854 60.3159 144.954 60.8627 143.554 60.8627C141.53 60.8627 139.88 59.3219 139.88 57.0355C139.88 54.8982 141.38 53.2083 143.404 53.2083C145.579 53.2083 146.829 54.9479 146.829 57.0852C146.829 57.1846 146.829 57.3088 146.804 57.458H140.955C141.18 59.0236 142.305 59.9183 143.604 59.9183ZM145.754 56.5881C145.629 55.2461 144.854 54.1278 143.404 54.1278C142.13 54.1278 141.155 55.1716 141.005 56.5881H145.754Z" fill="white"/>
<path d="M152.628 53.3574H153.728V54.6C154.203 53.8793 154.878 53.2083 156.103 53.2083C157.303 53.2083 158.077 53.8544 158.477 54.6745C159.002 53.8544 159.777 53.2083 161.077 53.2083C162.777 53.2083 163.827 54.3514 163.827 56.1656V60.7136H162.727V56.4142C162.727 54.9976 162.002 54.2023 160.827 54.2023C159.727 54.2023 158.777 55.0225 158.777 56.4639V60.6887H157.702V56.3893C157.702 55.0225 156.978 54.2023 155.803 54.2023C154.628 54.2023 153.753 55.1716 153.753 56.5136V60.6887H152.653V53.3574H152.628Z" fill="white"/>
<path d="M169.326 59.7444L169.876 58.974C170.676 59.5705 171.551 59.9184 172.425 59.9184C173.3 59.9184 173.95 59.4711 173.95 58.7255C173.95 57.98 173.075 57.7066 172.101 57.4332C170.951 57.1101 169.651 56.7125 169.651 55.3456C169.651 54.0782 170.701 53.2581 172.151 53.2581C173.05 53.2581 174.05 53.5811 174.8 54.0782L174.3 54.8983C173.625 54.451 172.825 54.1776 172.126 54.1776C171.251 54.1776 170.701 54.6249 170.701 55.2711C170.701 55.9669 171.626 56.2403 172.6 56.5385C173.75 56.8865 174.975 57.3089 174.975 58.6758C174.975 60.0675 173.825 60.8628 172.35 60.8628C171.301 60.8379 170.151 60.4155 169.326 59.7444Z" fill="white"/>
<path d="M175 39.7632H0V42.994H175V39.7632Z" fill="white"/>
<path d="M175 0H0V3.23077H175V0Z" fill="white"/>
<path d="M0 3.23071L21.197 39.7633L27.0211 29.723L11.6233 3.23071H0Z" fill="white"/>
<path d="M42.4188 3.23071H28.3708L35.3948 15.3337L42.4188 3.23071Z" fill="white"/>
<path d="M51.7925 11.5811H55.6669L61.6911 26.8154L67.6652 11.5811H71.4647L63.1659 31.5621H60.0913L51.7925 11.5811Z" fill="white"/>
<path d="M78.0388 11.5811H81.5383V31.413H78.0388V11.5811Z" fill="white"/>
<path d="M94.5113 14.8118H88.1873V11.5811H104.385V14.8118H98.0608V31.413H94.5363V14.8118H94.5113Z" fill="white"/>
<path d="M110.959 11.5811H119.858C124.532 11.5811 127.257 14.0663 127.257 17.8935C127.257 21.1491 125.282 23.1124 122.507 23.9077L127.882 31.413H123.757L118.808 24.5041H114.483V31.413H110.984V11.5811H110.959ZM119.608 21.3976C122.107 21.3976 123.707 20.1053 123.707 18.0177C123.707 15.9053 122.157 14.7373 119.583 14.7373H114.483V21.3976H119.608Z" fill="white"/>
<path d="M142.48 11.4319H145.729L154.503 31.4129H150.803L148.779 26.6165H139.355L137.305 31.4129H133.706L142.48 11.4319ZM147.504 23.5348L144.054 15.607L140.63 23.5348H147.504Z" fill="white"/>
<path d="M161.002 11.5811H164.501V28.2319H175V31.413H161.002V11.5811Z" fill="white"/>
</svg>
