<svg width="18" height="17" viewBox="0 0 18 17" fill="none" xmlns="http://www.w3.org/2000/svg">
<path fill-rule="evenodd" clip-rule="evenodd" d="M13.2 16.2C12.6 16.3 12 16.1 11.4 16C7.49999 14.8 4.49999 12.4 2.09999 9.2C1.19999 8 0.399993 6.7 0.099993 5.1C-0.300007 3.3 0.299993 1.7 1.59999 0.499999C2.09999 -5.96046e-07 3.39999 -0.200001 3.99999 0.0999994C4.19999 0.199999 4.29999 0.399999 4.39999 0.499999C4.89999 1.7 5.39999 2.9 5.89999 4C5.99999 4.3 5.99999 4.5 5.79999 4.7C5.49999 5.2 5.09999 5.7 4.69999 6.1C4.39999 6.5 4.39999 6.9 4.59999 7.2C5.99999 9.6 7.89999 11.3 10.5 12.3C10.9 12.4 11.2 12.4 11.4 12.1C11.8 11.6 12.3 11 12.7 10.5C12.9 10.2 13.3 10.1 13.7 10.3C14.5 10.7 15.4 11.1 16.2 11.4C16.4 11.5 16.6 11.6 16.8 11.7C17.7 12.1 17.7 12.2 17.6 13.1C17.5 14.9 16.1 15.8 14.5 16.3C13.9 16.3 13.6 16.3 13.2 16.2Z" fill="#ed3a4d"/>
</svg>
