<svg width="83" height="83" viewBox="0 0 83 83" fill="none" xmlns="http://www.w3.org/2000/svg">
<path d="M41.5 83C64.4198 83 83 64.4198 83 41.5C83 18.5802 64.4198 0 41.5 0C18.5802 0 0 18.5802 0 41.5C0 64.4198 18.5802 83 41.5 83Z" fill="#ED3A4D"/>
<path d="M10.419 49.0936C9.00619 49.0936 7.77002 47.8575 7.77002 46.4447V36.7319C7.77002 35.3192 9.00619 34.083 10.419 34.083C11.8317 34.083 13.0679 35.3192 13.0679 36.7319V46.4447C13.0679 47.8575 11.8317 49.0936 10.419 49.0936Z" fill="white"/>
<path d="M20.8384 60.396C19.4256 60.396 18.1895 59.1598 18.1895 57.747V25.2534C18.1895 23.8407 19.4256 22.6045 20.8384 22.6045C22.2512 22.6045 23.4873 23.8407 23.4873 25.2534V57.5704C23.3107 59.1598 22.2512 60.396 20.8384 60.396Z" fill="white"/>
<path d="M31.0811 56.8639C29.6683 56.8639 28.4321 55.6277 28.4321 54.215V28.7852C28.4321 27.3724 29.6683 26.1362 31.0811 26.1362C32.4938 26.1362 33.73 27.3724 33.73 28.7852V54.0384C33.73 55.6277 32.4938 56.8639 31.0811 56.8639Z" fill="white"/>
<path d="M41.3233 63.5742C39.9105 63.5742 38.6743 62.3381 38.6743 60.9253V22.0742C38.6743 20.6615 39.9105 19.4253 41.3233 19.4253C42.736 19.4253 43.9722 20.6615 43.9722 22.0742V60.9253C43.9722 62.3381 42.736 63.5742 41.3233 63.5742Z" fill="white"/>
<path d="M51.5659 75.0532C50.1532 75.0532 48.917 73.817 48.917 72.4042V10.5957C48.917 9.18295 50.1532 7.94678 51.5659 7.94678C52.9787 7.94678 54.2149 9.18295 54.2149 10.5957V72.4042C54.3915 73.817 53.1553 75.0532 51.5659 75.0532Z" fill="white"/>
<path d="M70.8148 12.1851C87.0617 28.4319 87.0617 54.7446 70.8148 70.8148C54.568 86.885 28.2553 87.0616 12.1851 70.8148L70.8148 12.1851Z" fill="#ED3A4D"/>
<path d="M12.185 73.4637C11.4786 73.4637 10.7722 73.2871 10.2424 72.7573C9.18286 71.6978 9.18286 70.1084 10.2424 69.0488L69.0488 10.2424C70.1084 9.18286 71.6978 9.18286 72.7573 10.2424C73.8169 11.302 73.8169 12.8914 72.7573 13.9509L13.9509 72.7573C13.5978 73.2871 12.8914 73.4637 12.185 73.4637Z" fill="white"/>
<path d="M19.9554 80.5274C19.4256 80.5274 19.0724 80.3508 18.7192 79.9976C18.0129 79.2912 18.0129 78.2317 18.7192 77.5253L77.349 18.8955C78.0554 18.1891 79.115 18.1891 79.8214 18.8955C80.5278 19.6019 80.5278 20.6615 79.8214 21.3679L21.1916 79.9976C20.8384 80.3508 20.4852 80.5274 19.9554 80.5274Z" fill="white"/>
</svg>
