<svg width="80" height="80" viewBox="0 0 80 80" fill="none" xmlns="http://www.w3.org/2000/svg">
<g clip-path="url(#clip0)">
<path d="M73.8725 80.0002H6.1278C4.93632 80.0002 3.91504 78.979 3.91504 77.7875V24.3406L40.0001 1.87256L76.0853 24.3406V77.7875C76.0853 78.979 75.064 80.0002 73.8725 80.0002Z" fill="#ED3A4D"/>
<path d="M4.08545 25.8724L40.0003 3.4043L75.9152 25.8724" fill="#ED3A4D"/>
<path d="M75.9152 29.2766C75.2343 29.2766 74.7237 29.1064 74.0428 28.766L40.0003 7.48936L5.78752 28.766C4.25561 29.7872 2.04284 29.2766 1.02156 27.7447C0.000286251 26.2128 0.510925 24 2.04284 22.9787L38.1279 0.510638C39.1492 -0.170213 40.6811 -0.170213 41.7024 0.510638L77.6173 22.9787C79.1492 24 79.6599 26.0426 78.6386 27.7447C78.1279 28.766 77.1067 29.2766 75.9152 29.2766Z" fill="#ED3A4D"/>
<path d="M40.0006 73.702C31.8304 73.702 25.3623 67.0637 25.3623 59.0637C25.3623 54.1275 27.7453 49.5318 31.8304 46.8084V21.7871C31.8304 20.4254 33.0219 19.2339 34.3836 19.2339H45.6176C46.9793 19.2339 48.1708 20.4254 48.1708 21.7871V46.8084C52.2559 49.5318 54.6389 54.1275 54.6389 59.0637C54.6389 67.0637 48.1708 73.702 40.0006 73.702ZM36.9368 24.3403V48.1701C36.9368 49.1913 36.4261 50.0424 35.5751 50.3828C32.341 52.085 30.4687 55.319 30.4687 58.8935C30.4687 64.1701 34.724 68.4254 40.0006 68.4254C45.2772 68.4254 49.5325 64.1701 49.5325 58.8935C49.5325 55.319 47.49 52.085 44.4261 50.3828C43.5751 49.8722 43.0644 49.0211 43.0644 48.1701V24.3403H36.9368Z" fill="white"/>
<path d="M60.9369 44.0849H53.2773C52.256 44.0849 51.5752 43.4041 51.5752 42.3828C51.5752 41.3615 52.256 40.6807 53.2773 40.6807H60.9369C61.9582 40.6807 62.639 41.3615 62.639 42.3828C62.639 43.4041 61.788 44.0849 60.9369 44.0849Z" fill="white"/>
<path d="M60.9369 35.4043H53.2773C52.256 35.4043 51.5752 34.7234 51.5752 33.7021C51.5752 32.6809 52.256 32 53.2773 32H60.9369C61.9582 32 62.639 32.6809 62.639 33.7021C62.639 34.7234 61.788 35.4043 60.9369 35.4043Z" fill="white"/>
<path d="M60.9369 26.8935H53.2773C52.256 26.8935 51.5752 26.2127 51.5752 25.1914C51.5752 24.1701 52.256 23.4893 53.2773 23.4893H60.9369C61.9582 23.4893 62.639 24.1701 62.639 25.1914C62.639 26.2127 61.788 26.8935 60.9369 26.8935Z" fill="white"/>
<path d="M45.6173 38.8086H34.3833C33.362 38.8086 32.6812 38.1277 32.6812 37.1064C32.6812 36.0851 33.362 35.4043 34.3833 35.4043H45.6173C46.6386 35.4043 47.3195 36.0851 47.3195 37.1064C47.3195 38.1277 46.4684 38.8086 45.6173 38.8086Z" fill="white"/>
</g>
<defs>
<clipPath id="clip0">
<rect width="80" height="80" fill="white"/>
</clipPath>
</defs>
</svg>
