<svg width="50" height="43" viewBox="0 0 50 43" fill="none" xmlns="http://www.w3.org/2000/svg">
<g clip-path="url(#clip0)">
<path d="M0 3.48816C0 3.48816 0 0.428683 2.32942 0.382187C4.65884 0.33569 4.62216 3.17198 4.62216 3.17198L4.81475 21.1847C4.81475 21.1847 4.77806 21.5753 5.28247 21.6218C5.78687 21.659 9.41856 6.00827 9.79457 4.87375C10.354 3.18128 12.2432 0.865751 14.0682 0.391486C15.8933 -0.0920778 16.1317 0.0288132 16.1317 0.0288132C16.1317 0.0288132 10.4916 18.3113 10.5741 19.0273C10.6475 19.734 18.1493 42.4337 18.1493 42.4337C18.1493 42.4337 14.3434 42.6661 12.9402 39.8763C11.5371 37.0773 8.54732 24.8208 8.11629 24.7836C7.68525 24.7464 5.51174 29.9633 5.54842 30.4468C5.58511 30.9304 5.79604 37.5794 5.67682 39.9507C5.63096 40.8342 5.12656 42.8242 3.39325 42.8149C1.82502 42.8056 1.26559 40.8435 1.24725 39.8949C1.12803 29.7773 0 3.48816 0 3.48816Z" fill="white"/>
<path d="M20.3504 2.52935C21.1941 1.24605 22.5331 0.158026 26.4124 0.0185368C30.4568 -0.130252 32.5844 1.38554 32.5936 1.804C32.6119 2.65024 29.9707 3.89635 27.9898 4.09163C26.0089 4.28692 24.9817 4.5008 24.4314 5.05876C23.8904 5.60742 23.8078 7.83925 23.8904 10.8522C23.9637 13.8652 23.7803 18.6729 24.8075 19.0263C25.8346 19.3797 27.6504 19.2681 29.0995 19.5564C30.7227 19.8819 32.346 21.0629 32.346 21.4255C32.346 21.7882 30.5576 22.9506 29.5305 23.2017C28.5033 23.4621 25.6237 23.1831 24.9267 23.9922C24.2297 24.8012 24.4223 29.5903 24.4406 31.4037C24.459 33.2171 24.2847 37.0763 25.5686 38.2015C26.8526 39.3267 29.5305 38.9268 30.7411 39.1314C31.9425 39.3267 33.7308 40.7123 33.7308 41.0471C33.7308 41.3819 32.4102 42.628 30.6952 42.8419C28.9894 43.0557 23.2484 43.5486 21.3683 40.889C19.4791 38.2294 20.0844 35.9418 19.9469 31.2363C19.8093 26.5309 19.1857 10.9638 19.1306 9.10396C19.0664 7.2348 18.9289 4.67749 20.3504 2.52935Z" fill="white"/>
<path d="M37.6376 0.585772C38.0503 0.557874 39.6552 2.34334 39.7836 4.39849C39.912 6.44434 40.0679 21.472 40.0954 23.397C40.1229 25.3126 39.9945 36.0905 41.4435 37.5877C42.8925 39.0849 45.974 38.8524 47.3037 39.0849C48.6244 39.3174 50.0459 40.4798 50 40.8704C49.945 41.2609 48.4593 42.693 46.6343 42.8325C44.8734 42.9627 40.5448 43.6323 37.9585 41.0099C35.3632 38.3782 35.675 26.1403 35.675 22.8855C35.675 19.6308 35.2348 6.14676 35.4916 4.57517C35.7759 2.78041 36.9131 0.641568 37.6376 0.585772Z" fill="white"/>
</g>
<defs>
<clipPath id="clip0">
<rect width="50" height="43" fill="white"/>
</clipPath>
</defs>
</svg>
