<svg width="40" height="40" viewBox="0 0 40 40" fill="none" xmlns="http://www.w3.org/2000/svg">
<path d="M36.4835 3.19084C38.4016 5.1155 39.3606 7.52133 39.6803 10.0875C40 13.1349 40.3197 28.0511 39.3606 31.5796C38.0819 36.0705 35.2048 38.7971 30.5694 39.599C27.2128 40.0802 11.7083 40.2406 8.51149 39.4386C4.03596 38.1555 1.31868 35.2685 0.519481 30.6173C-0.11988 27.2491 -0.27972 11.531 0.679321 8.16288C1.95804 3.83239 4.83517 1.10579 9.31069 0.464233C13.3067 -0.177321 24.4955 -0.0169327 29.1309 0.143456C31.8482 0.303844 34.4056 1.26618 36.4835 3.19084Z" fill="black"/>
<path d="M13.8263 18.53C14.9303 18.71 15.7763 19.124 16.3643 19.772C16.9523 20.408 17.2463 21.2 17.2463 22.148C17.2463 22.88 17.0543 23.558 16.6703 24.182C16.2863 24.794 15.6983 25.286 14.9063 25.658C14.1263 26.03 13.1663 26.216 12.0263 26.216C11.1383 26.216 10.2623 26.102 9.39828 25.874C8.54628 25.634 7.82028 25.298 7.22028 24.866L8.35428 22.634C8.83428 22.994 9.38628 23.276 10.0103 23.48C10.6463 23.672 11.2943 23.768 11.9543 23.768C12.6863 23.768 13.2623 23.63 13.6823 23.354C14.1023 23.066 14.3123 22.664 14.3123 22.148C14.3123 21.116 13.5263 20.6 11.9543 20.6H10.6223V18.674L13.2143 15.74H7.85028V13.4H16.6703V15.29L13.8263 18.53ZM19.3846 13.4H25.1086C26.4766 13.4 27.6826 13.664 28.7266 14.192C29.7826 14.708 30.5986 15.44 31.1746 16.388C31.7626 17.336 32.0566 18.44 32.0566 19.7C32.0566 20.96 31.7626 22.064 31.1746 23.012C30.5986 23.96 29.7826 24.698 28.7266 25.226C27.6826 25.742 26.4766 26 25.1086 26H19.3846V13.4ZM24.9646 23.606C26.2246 23.606 27.2266 23.258 27.9706 22.562C28.7266 21.854 29.1046 20.9 29.1046 19.7C29.1046 18.5 28.7266 17.552 27.9706 16.856C27.2266 16.148 26.2246 15.794 24.9646 15.794H22.3006V23.606H24.9646Z" fill="white"/>
</svg>
