<svg width="25" height="25" viewBox="0 0 25 25" fill="none" xmlns="http://www.w3.org/2000/svg">
<path d="M24.8002 6.30472C24.6004 4.70083 24.001 3.19719 22.8022 1.99428C21.5035 0.791363 19.9051 0.189903 18.2068 0.0896601C15.3097 -0.0105827 8.31668 -0.110826 5.81918 0.290145C3.02198 0.691117 1.22378 2.39525 0.424575 5.10181C-0.174825 7.20691 -0.0749251 17.0307 0.324675 19.1358C0.824176 22.0428 2.52248 23.8472 5.31968 24.6492C7.31768 25.1504 17.008 25.0501 19.1059 24.7494C22.003 24.2482 23.8012 22.5441 24.6004 19.7373C25.1998 17.5319 25 8.20933 24.8002 6.30472ZM22.5025 18.8351C22.2028 21.0404 20.7043 22.3436 18.5065 22.6443C16.5085 22.8448 7.51748 22.945 5.61938 22.4438C3.82118 21.9426 2.82218 20.7397 2.52248 18.9353C2.22278 17.2312 2.12288 8.6103 2.52248 6.30472C2.82218 4.09938 4.32068 2.79621 6.51848 2.49548C8.71628 2.295 16.7083 2.19476 18.8062 2.59573C21.004 2.89646 22.3027 4.4001 22.6024 6.60544C22.8022 8.51005 22.8022 16.6297 22.5025 18.8351Z" fill="white"/>
<path d="M15.6094 7.80838H17.4076V4.70085C17.1079 4.70085 16.009 4.60062 14.8102 4.60062C12.2128 4.60062 10.5145 6.20449 10.5145 9.21178V11.9183H7.61737V15.4268H10.4146V24.148H13.9111V15.4268H16.6084L17.008 11.9183H13.9111V9.51251C13.9111 8.51008 14.2108 7.80838 15.6094 7.80838Z" fill="white"/>
</svg>
