<svg width="25" height="25" viewBox="0 0 25 25" fill="none" xmlns="http://www.w3.org/2000/svg">
<path d="M24.8002 6.30472C24.6004 4.70083 24.001 3.19718 22.8022 1.99427C21.5035 0.791356 19.9051 0.189903 18.2068 0.0896601C15.3097 -0.0105828 8.31668 -0.110826 5.81918 0.290145C3.02198 0.691117 1.22378 2.39524 0.424575 5.1018C-0.174825 7.2069 -0.0749251 17.0307 0.324675 19.1358C0.824176 22.0428 2.52248 23.8472 5.31968 24.6491C7.31768 25.1504 17.008 25.0501 19.1059 24.7494C22.003 24.2482 23.8012 22.5441 24.6004 19.7373C25.1998 17.5319 25 8.20933 24.8002 6.30472ZM22.5025 18.8351C22.2028 21.0404 20.7043 22.3436 18.5065 22.6443C16.5085 22.8448 7.51748 22.945 5.61938 22.4438C3.82118 21.9426 2.82218 20.7397 2.52248 18.9353C2.22278 17.2312 2.12288 8.6103 2.52248 6.30472C2.82218 4.09938 4.32068 2.79622 6.51848 2.49549C8.71628 2.295 16.7083 2.19476 18.8062 2.59573C21.004 2.89646 22.3027 4.4001 22.6024 6.60545C22.8022 8.51006 22.8022 16.6297 22.5025 18.8351ZM12.5125 6.10422C9.01598 6.10422 6.11888 9.01127 6.11888 12.5198C6.11888 16.0283 9.01598 18.9353 12.5125 18.9353C16.009 18.9353 18.9061 16.0283 18.9061 12.5198C18.9061 9.01127 16.009 6.10422 12.5125 6.10422ZM12.5125 16.6297C10.2148 16.6297 8.41658 14.7251 8.41658 12.4195C8.41658 10.1139 10.3147 8.30957 12.6124 8.30957C14.9101 8.30957 16.7083 10.2142 16.7083 12.5198C16.6084 14.8254 14.8102 16.6297 12.5125 16.6297ZM20.7043 5.8035C20.7043 6.60544 20.005 7.30714 19.2058 7.30714C18.4066 7.30714 17.7073 6.60544 17.7073 5.8035C17.7073 5.00155 18.4066 4.29986 19.2058 4.29986C20.005 4.29986 20.7043 5.00155 20.7043 5.8035Z" fill="white"/>
</svg>
