<svg width="25" height="25" viewBox="0 0 25 25" fill="none" xmlns="http://www.w3.org/2000/svg">
<path d="M24.8002 6.30471C24.6004 4.70083 24.001 3.19719 22.8022 1.99427C21.5035 0.79136 19.9051 0.189903 18.2068 0.0896601C15.3097 -0.0105828 8.31668 -0.110826 5.81918 0.290145C3.02198 0.691117 1.22378 2.39524 0.424575 5.1018C-0.174825 7.2069 -0.0749251 17.0307 0.324675 19.1358C0.824176 22.0428 2.52248 23.8472 5.31968 24.6491C7.31768 25.1504 17.008 25.0501 19.1059 24.7494C22.003 24.2482 23.8012 22.5441 24.6004 19.7373C25.1998 17.5319 25 8.20933 24.8002 6.30471ZM22.5025 18.8351C22.2028 21.0404 20.7043 22.3436 18.5065 22.6443C16.5085 22.8448 7.51748 22.945 5.61938 22.4438C3.82118 21.9426 2.82218 20.7397 2.52248 18.9353C2.22278 17.2312 2.12288 8.6103 2.52248 6.30471C2.82218 4.09937 4.32068 2.79622 6.51848 2.49549C8.71628 2.295 16.7083 2.19476 18.8062 2.59573C21.004 2.89646 22.3027 4.4001 22.6024 6.60544C22.8022 8.51006 22.8022 16.6297 22.5025 18.8351Z" fill="white"/>
<path d="M7.6174 14.0234L9.5155 18.9353C9.61541 19.1358 9.8152 19.1358 9.9151 19.0355L12.3127 16.6297L16.7083 20.1382C16.8082 20.2384 17.008 20.1382 17.008 20.0379L20.1049 6.00396C20.1049 5.90371 20.005 5.70323 19.9051 5.80347L4.021 12.3192C3.8212 12.4195 3.8212 12.62 4.021 12.7202L7.6174 14.0234ZM15.5095 9.71294L10.4146 14.4243L9.81521 16.8302L8.61641 13.9231L15.5095 9.71294Z" fill="white"/>
</svg>
