<svg width="18" height="20" viewBox="0 0 18 20" xmlns="http://www.w3.org/2000/svg">
<path d="M13.9593 0.477483C10.6717 -0.155255 7.3387 -0.155255 4.05111 0.477483C2.60712 0.798436 0.799852 2.54993 0.445664 3.96212C-0.144649 6.68564 -0.144649 9.44585 0.445664 12.1785C0.799852 13.5907 2.60712 15.3422 4.05111 15.6632C4.11469 15.6723 4.16009 15.7365 4.16009 15.8007V19.7897C4.16009 19.9915 4.4053 20.0832 4.54153 19.9456L6.42145 18.0016C6.42145 18.0016 7.91993 16.4518 8.1833 16.1675C8.21055 16.14 8.24688 16.1217 8.2832 16.1309C10.1813 16.1859 12.0794 16.03 13.9593 15.6632C15.3942 15.3422 17.2106 13.5907 17.5647 12.1785C18.1551 9.45502 18.1551 6.69481 17.5647 3.96212C17.2015 2.54993 15.3942 0.798436 13.9593 0.477483ZM14.0047 12.3711C13.7141 12.9855 13.2963 13.499 12.6969 13.8292C12.5244 13.9209 12.3246 13.9484 12.1339 14.0126C11.9159 13.9484 11.6979 13.9025 11.5072 13.82C9.48199 12.9672 7.61115 11.8759 6.13083 10.1978C5.28623 9.23493 4.63234 8.16203 4.06928 7.01577C3.80591 6.47473 3.57886 5.91536 3.3609 5.35598C3.15202 4.84245 3.4608 4.31976 3.77866 3.93461C4.07836 3.57698 4.46887 3.30188 4.88663 3.09096C5.21358 2.93507 5.54052 3.02677 5.77664 3.30187C6.2943 3.9071 6.76655 4.53984 7.14799 5.24594C7.38411 5.67693 7.32054 6.2088 6.8937 6.50224C6.7938 6.5756 6.6939 6.65813 6.594 6.74066C6.51226 6.81403 6.43053 6.87822 6.36696 6.97909C6.25798 7.15332 6.25798 7.36423 6.32155 7.54763C6.84829 9.01485 7.7383 10.1519 9.20046 10.7663C9.43658 10.8672 9.67271 10.9773 9.93608 10.9497C10.3902 10.8947 10.5355 10.3995 10.8533 10.1336C11.1621 9.87684 11.5526 9.87684 11.8887 10.0878C12.2247 10.2987 12.5425 10.5279 12.8604 10.7572C13.1783 10.9864 13.487 11.2065 13.7777 11.4633C14.0683 11.7109 14.1682 12.041 14.0047 12.3711ZM11.3892 7.60265C11.262 7.60265 11.3074 7.60265 11.3619 7.60265C11.1621 7.59348 11.0531 7.47427 11.0259 7.2817C11.0077 7.13498 10.9986 6.99743 10.9623 6.85071C10.8987 6.5756 10.7534 6.31884 10.5264 6.15378C10.4174 6.07125 10.2993 6.01623 10.1722 5.97955C10.0087 5.93369 9.83618 5.94287 9.68179 5.90619C9.50924 5.86033 9.40934 5.72278 9.43658 5.54855C9.46383 5.39266 9.60914 5.27345 9.77261 5.29179C10.7988 5.36515 11.5345 5.90618 11.6434 7.12581C11.6525 7.20834 11.6616 7.30004 11.6434 7.38257C11.6162 7.52012 11.5163 7.58431 11.4255 7.60265C11.4073 7.60265 11.4073 7.60265 11.3892 7.60265ZM10.7444 4.80577C10.4265 4.64988 10.0905 4.54901 9.74536 4.49399C9.59097 4.46648 9.44567 4.45731 9.29128 4.4298C9.10964 4.40229 9.00974 4.28308 9.01882 4.09967C9.02791 3.92544 9.15505 3.80623 9.33668 3.8154C9.94516 3.85208 10.5355 3.98046 11.0713 4.27391C12.1702 4.86079 12.7968 5.79614 12.9875 7.03411C12.9966 7.08913 13.0057 7.14415 13.0148 7.19917C13.0239 7.33672 13.033 7.47427 13.042 7.65767C13.042 7.69436 13.033 7.76772 13.0148 7.84108C12.9421 8.10701 12.5425 8.14369 12.4517 7.86859C12.4245 7.78606 12.4245 7.69436 12.4154 7.61182C12.4154 7.04328 12.2882 6.47473 12.0067 5.97955C11.7161 5.49353 11.2711 5.06254 10.7444 4.80577ZM14.15 8.63888C13.9411 8.63888 13.8412 8.46464 13.8321 8.27207C13.8049 7.88693 13.7867 7.51095 13.7322 7.12581C13.4598 5.12673 11.8796 3.47611 9.91791 3.12764C9.61822 3.07262 9.31852 3.06345 9.01882 3.02677C8.82811 3.00843 8.5829 2.99926 8.53749 2.76084C8.50116 2.5591 8.66464 2.4032 8.85535 2.39403C8.90984 2.39403 8.95525 2.39403 9.00974 2.39403C11.5435 2.4674 9.18229 2.4032 9.01882 2.39403C11.6707 2.47657 13.8412 4.2464 14.3135 6.89656C14.3952 7.34589 14.4225 7.81357 14.4588 8.2629C14.4588 8.45547 14.3589 8.63888 14.15 8.63888Z" fill="currentColor"/>
</svg>
