<svg width="40" height="40" viewBox="0 0 40 40" fill="none" xmlns="http://www.w3.org/2000/svg">
<path d="M36.4835 3.19084C38.4016 5.1155 39.3606 7.52133 39.6803 10.0875C40 13.1349 40.3197 28.0511 39.3606 31.5796C38.0819 36.0705 35.2048 38.7971 30.5694 39.599C27.2128 40.0802 11.7083 40.2406 8.51149 39.4386C4.03596 38.1555 1.31868 35.2685 0.519481 30.6173C-0.11988 27.2491 -0.27972 11.531 0.679321 8.16288C1.95804 3.83239 4.83517 1.10579 9.31069 0.464233C13.3067 -0.177321 24.4955 -0.0169327 29.1309 0.143456C31.8482 0.303844 34.4056 1.26618 36.4835 3.19084Z" fill="#FF0000"/>
<path d="M16.583 13.8499L28.126 19.646C28.5484 19.9156 28.5484 20.5896 28.126 20.7244L16.583 26.5205C16.1607 26.79 15.5977 26.3857 15.5977 25.9813V14.3891C15.5977 13.9847 16.1607 13.5803 16.583 13.8499Z" fill="white"/>
</svg>
